<?xml version="1.0" encoding="UTF-8"?>
<svg version="1.1" xmlns="http://www.w3.org/2000/svg" width="769" height="559">
<path d="M0 0 C0.77658966 0.00054382 1.55317932 0.00108765 2.353302 0.00164795 C45.32780038 0.13888178 90.21310217 14.55628474 123.5 42.375 C124.78367298 43.3924991 126.06900466 44.40790712 127.35546875 45.421875 C136.94364506 53.04949848 145.50758654 61.09139593 153.5 70.375 C154.30824219 71.30957031 155.11648438 72.24414062 155.94921875 73.20703125 C169.48042657 89.33585313 169.48042657 89.33585313 173.5 97.375 C174.16 97.375 174.82 97.375 175.5 97.375 C176.93095441 95.78095798 176.93095441 95.78095798 178.37109375 93.67578125 C179.22525879 92.48819214 179.22525879 92.48819214 180.09667969 91.27661133 C180.70415039 90.42220459 181.31162109 89.56779785 181.9375 88.6875 C186.38147297 82.54737612 190.86604481 76.48652089 195.75 70.6875 C196.2030249 70.14198486 196.6560498 69.59646973 197.12280273 69.03442383 C198.20113956 67.77252264 199.34461443 66.56675882 200.5 65.375 C201.16 65.375 201.82 65.375 202.5 65.375 C202.85578125 64.53195313 202.85578125 64.53195313 203.21875 63.671875 C207.84876782 55.3717211 217.03183571 49.03096606 224.5 43.375 C225.15081543 42.86952637 225.80163086 42.36405273 226.47216797 41.84326172 C251.90919489 22.11461127 279.05988094 10.14237989 310.5 3.375 C311.26038574 3.19710938 312.02077148 3.01921875 312.80419922 2.8359375 C359.16396301 -7.87964193 412.192389 4.17749949 452.18359375 28.546875 C458.49507504 32.56466146 464.0011785 37.32751816 469.5 42.375 C470.83611328 43.53322266 470.83611328 43.53322266 472.19921875 44.71484375 C494.90245192 64.49759976 510.16659083 90.30061505 518.375 119.0625 C518.66133301 120.05878418 518.94766602 121.05506836 519.24267578 122.08154297 C522.82585666 135.28738519 523.89106286 148.47988177 523.8125 162.125 C523.81001251 162.82287628 523.80752502 163.52075256 523.80496216 164.23977661 C523.74305789 175.52195072 523.13750194 186.3736077 520.5 197.375 C520.16935547 198.77395508 520.16935547 198.77395508 519.83203125 200.20117188 C514.88228698 220.53702599 507.83136887 240.74051799 496.6484375 258.54492188 C495.30873134 260.67979376 493.99942582 262.83232556 492.6875 264.984375 C486.79422823 274.56557768 480.59087128 283.64054929 473.5 292.375 C472.76265625 293.2928125 472.0253125 294.210625 471.265625 295.15625 C469.7855275 296.9827533 468.29442649 298.80038977 466.79296875 300.609375 C465.27697554 302.43786425 463.77911117 304.28155292 462.30078125 306.140625 C455.93650773 313.97042366 448.94108668 321.12225818 441.8125 328.25 C441.315224 328.74818237 440.817948 329.24636475 440.30560303 329.75964355 C435.09700665 334.96716728 429.83944387 340.07681388 424.24536133 344.87255859 C421.66099051 347.09723589 419.18272256 349.42577871 416.6875 351.75 C412.12397415 355.96132429 407.44379216 359.97139462 402.60546875 363.8671875 C400.21886677 365.79448117 397.84895166 367.73665834 395.48828125 369.6953125 C387.95673519 375.94275255 380.38522305 382.10268941 372.59375 388.0234375 C369.99233219 390.00077781 367.41263753 392.00290545 364.83764648 394.0144043 C356.59775159 400.4271535 348.07122585 406.41597587 339.5 412.375 C338.82533691 412.84583008 338.15067383 413.31666016 337.45556641 413.80175781 C327.2850408 420.89354381 316.95508671 427.71074013 306.5 434.375 C305.3567627 435.10420654 305.3567627 435.10420654 304.19042969 435.84814453 C294.94268571 441.7377799 285.64245767 447.53249228 276.27416992 453.22827148 C269.16634227 457.55818463 262.13461477 462.00482526 255.10546875 466.4609375 C250.15215358 469.60014373 245.17577478 472.70170313 240.19775391 475.80151367 C236.01991432 478.40887441 231.87919267 481.06626568 227.75 483.75 C215.39200537 491.74792293 202.65536544 499.1556739 189.9375 506.5625 C189.13417236 507.03220215 188.33084473 507.5019043 187.50317383 507.98583984 C186.7583374 508.41719238 186.01350098 508.84854492 185.24609375 509.29296875 C184.59310303 509.67219482 183.9401123 510.0514209 183.26733398 510.44213867 C179.13310156 512.62433264 175.07354618 512.93032176 170.5 512.375 C167.85090178 511.26581329 165.62664549 510.1927424 163.1875 508.75 C162.53289795 508.38173096 161.8782959 508.01346191 161.20385742 507.6340332 C159.89093352 506.89465906 158.58164446 506.14878725 157.27636719 505.39599609 C154.97795002 504.07494323 152.64715089 502.8182034 150.3125 501.5625 C149.44753906 501.088125 148.58257812 500.61375 147.69140625 500.125 C145.09793396 498.70287566 142.50092677 497.28774043 139.90234375 495.875 C130.99222681 491.01860425 122.1701694 486.06952374 113.5 480.796875 C108.73618426 477.90074669 103.92881602 475.07909299 99.125 472.25 C88.89585485 466.21708463 78.70713738 460.11833898 68.53125 453.99609375 C64.78914145 451.74549967 61.04061539 449.5067966 57.28125 447.28515625 C44.44243567 439.68179537 31.94417371 431.60618534 19.5 423.375 C18.31384951 422.593678 17.12765982 421.81241549 15.94140625 421.03125 C13.11696418 419.16106312 10.30547981 417.27350278 7.5 415.375 C6.92862305 414.98989258 6.35724609 414.60478516 5.76855469 414.20800781 C-4.75733122 407.10097362 -15.0219026 399.67100006 -25.20556641 392.08300781 C-27.36627481 390.47454686 -29.53207158 388.87320671 -31.69921875 387.2734375 C-53.06449205 371.44778917 -73.76590043 354.37497214 -92.4296875 335.41015625 C-94.34605174 333.52633404 -96.3184374 331.79017911 -98.375 330.0625 C-103.90608721 325.31525948 -108.65944753 319.80604155 -113.5 314.375 C-114.1290625 313.67246094 -114.758125 312.96992188 -115.40625 312.24609375 C-156.50322283 265.81814567 -182.3167265 214.38414928 -179.5 151.375 C-177.11801013 116.54050988 -162.74844911 80.05534791 -137.421875 55.34765625 C-136.14852209 54.24770709 -134.85536396 53.17024713 -133.54296875 52.1171875 C-131.08635572 50.02225555 -129.00251239 47.68472692 -126.8125 45.3125 C-114.73270105 33.13203606 -99.04684181 24.37792764 -83.5 17.375 C-82.51515625 16.91996094 -81.5303125 16.46492188 -80.515625 15.99609375 C-68.63998985 10.76359705 -56.01042037 7.0218399 -43.375 4.125 C-42.73288574 3.97409912 -42.09077148 3.82319824 -41.42919922 3.66772461 C-27.79373579 0.71254175 -13.9084188 -0.03717373 0 0 Z M-106.5 48.375 C-107.32371094 48.97441406 -108.14742187 49.57382813 -108.99609375 50.19140625 C-131.63903426 67.40598992 -148.00703902 90.69507467 -157.5 117.375 C-157.72671387 118.00341797 -157.95342773 118.63183594 -158.18701172 119.27929688 C-172.54195349 159.64936866 -165.41026444 202.33216078 -147.48046875 240.35546875 C-137.18412304 261.51488547 -122.95590085 281.49039035 -106.93359375 298.6875 C-104.4991701 301.37591649 -102.24831233 304.15503537 -100 307 C-96.30499662 311.58937699 -92.28207411 315.41068043 -87.8359375 319.26171875 C-85.69676564 321.19698961 -83.8529465 323.16973269 -82 325.375 C-77.93175566 330.18988683 -73.24667393 334.24419199 -68.5 338.375 C-67.8296875 338.96023438 -67.159375 339.54546875 -66.46875 340.1484375 C-65.19016267 341.26458136 -63.91019648 342.3791475 -62.62890625 343.4921875 C-59.16848502 346.55259674 -55.79026372 349.70317362 -52.40625 352.84765625 C-49.57129955 355.31299623 -46.64629854 357.53537364 -43.62792969 359.76635742 C-39.18179579 363.12748365 -34.95049765 366.76057048 -30.6796875 370.33984375 C-26.7474953 373.60954705 -22.78688919 376.57469335 -18.5 379.375 C-16.81863211 380.62391194 -15.16183546 381.90209729 -13.50292969 383.18066406 C-3.17326417 391.12532101 7.66765964 398.27233008 18.55078125 405.42944336 C21.60975146 407.44740144 24.6571225 409.48206095 27.703125 411.51953125 C32.43339677 414.67534424 37.18934519 417.78077078 42 420.8125 C42.78205811 421.30564697 43.56411621 421.79879395 44.36987305 422.30688477 C61.95338536 433.34354177 79.77669295 443.9991504 97.66796875 454.52734375 C101.83208959 456.97802193 105.98362114 459.44861196 110.125 461.9375 C110.7120874 462.28981689 111.2991748 462.64213379 111.90405273 463.00512695 C115.27022788 465.02739013 118.62926841 467.06098837 121.984375 469.1015625 C131.44090644 474.83645414 140.97916726 480.40126637 150.625 485.8125 C151.65544434 486.39153076 152.68588867 486.97056152 153.74755859 487.56713867 C156.65502504 489.18876452 159.57645843 490.78259642 162.5 492.375 C163.39686523 492.88820801 164.29373047 493.40141602 165.21777344 493.93017578 C169.01701376 496.01194148 171.67578668 497.34141422 176.046875 497.51953125 C180.71695306 495.97164339 184.59999978 493.67639774 188.75 491.0625 C189.62043945 490.52705566 190.49087891 489.99161133 191.38769531 489.43994141 C194.10059524 487.76530578 196.80156605 486.07283025 199.5 484.375 C200.33273437 483.85341309 201.16546875 483.33182617 202.0234375 482.79443359 C206.01881863 480.29014019 210.00548362 477.77259381 213.984375 475.2421875 C218.14266431 472.59776987 222.31769743 469.98122606 226.5 467.375 C230.61005443 464.81272893 234.71478804 462.24279035 238.8046875 459.6484375 C247.99379421 453.81964538 257.22584585 448.06768553 266.5 442.375 C270.83461794 439.71041619 275.16806853 437.04394915 279.5 434.375 C280.31871582 433.8706543 281.13743164 433.36630859 281.98095703 432.84667969 C293.27119706 425.86743743 304.33077769 418.54725456 315.375 411.1875 C316.07746857 410.71955017 316.77993713 410.25160034 317.50369263 409.76947021 C335.51822977 397.80442194 335.51822977 397.80442194 352.9375 385 C353.64922363 384.45182617 354.36094727 383.90365234 355.09423828 383.33886719 C357.23298374 381.68869184 359.36738437 380.03308731 361.5 378.375 C362.14179199 377.87645508 362.78358398 377.37791016 363.44482422 376.86425781 C374.52869751 368.23991836 385.38879282 359.36858012 396.06640625 350.24609375 C397.85830011 348.72090661 399.66290306 347.25208737 401.54174805 345.83447266 C409.68757383 339.6202021 416.76694624 332.37536566 423.96899414 325.11181641 C426.1877721 322.87472566 428.41450436 320.64579754 430.64257812 318.41796875 C432.07859802 316.97703375 433.51416063 315.53564286 434.94921875 314.09375 C435.60355392 313.438302 436.2578891 312.782854 436.93205261 312.10754395 C450.14462528 298.76071892 461.92977134 283.88249046 472.5 268.375 C473.23605469 267.30378906 473.97210937 266.23257813 474.73046875 265.12890625 C489.06863707 243.58358784 499.18557939 220.41821161 505.5 195.375 C505.68079102 194.69099121 505.86158203 194.00698242 506.04785156 193.30224609 C511.18236588 173.27968181 510.48683957 148.38178438 505.5 128.375 C505.33902832 127.69050781 505.17805664 127.00601563 505.01220703 126.30078125 C501.15704577 110.27279093 494.07718765 94.79526295 484.5 81.375 C483.82066406 80.40046875 483.14132812 79.4259375 482.44140625 78.421875 C472.66606108 65.03641078 460.56580705 52.23784326 446.5 43.375 C445.69393311 42.85099609 445.69393311 42.85099609 444.87158203 42.31640625 C424.97236528 29.4256836 402.81084579 21.49015469 379.5 17.375 C378.59330566 17.20726074 377.68661133 17.03952148 376.75244141 16.86669922 C368.07115334 15.37424856 359.54699647 14.97577221 350.75 15 C350.03544647 15.00021149 349.32089294 15.00042297 348.58468628 15.00064087 C334.94972339 15.04058169 321.83857041 16.4491043 308.5 19.375 C307.70174805 19.54628418 306.90349609 19.71756836 306.08105469 19.89404297 C279.88780485 25.74285744 255.17130344 38.41894434 234.5 55.375 C233.19289063 56.37853516 233.19289063 56.37853516 231.859375 57.40234375 C217.99516921 68.21559407 205.82258669 81.17440334 195.5 95.375 C195.06075195 95.97473633 194.62150391 96.57447266 194.16894531 97.19238281 C189.9983014 102.90323555 185.94521715 108.61375068 182.3125 114.6875 C180.21630217 117.8554826 179.68547913 118.30341156 175.9375 119.75 C171.41835171 119.257002 170.49646289 117.72559033 167.5 114.375 C165.88696973 112.2279076 164.33421154 110.08350717 162.8125 107.875 C155.44548641 97.40441248 147.82655599 87.45741323 139.04296875 78.12890625 C137.25473728 76.19234222 135.56365644 74.26549156 133.8984375 72.23046875 C130.75267669 68.48527143 127.22820991 65.5204813 123.5 62.375 C122.27216797 61.28058594 122.27216797 61.28058594 121.01953125 60.1640625 C93.86369001 36.49366774 60.04860995 21.51188323 24.5 16.375 C23.81429932 16.2733252 23.12859863 16.17165039 22.42211914 16.06689453 C-22.38044671 10.22783321 -70.21852173 21.3714233 -106.5 48.375 Z " fill="#FEDC05" transform="translate(216.5,26.625)"/>
<path d="M0 0 C21.07715115 19.15642102 36.14851204 46.69478936 37.61816406 75.47070312 C38.21519648 90.0667717 38.15013184 104.24813178 34.61816406 118.47070312 C34.45719238 119.15890137 34.2962207 119.84709961 34.13037109 120.55615234 C29.95512993 138.04724431 21.88871441 152.41363413 9.61816406 165.47070312 C8.74289062 166.4375 7.86761719 167.40429688 6.96582031 168.40039062 C-13.59568787 190.19981634 -43.782752 199.70918358 -73.09667969 200.63085938 C-106.55888813 201.37089504 -137.15779273 191.88057546 -161.97558594 168.86914062 C-167.78226624 163.08131318 -172.63004414 157.11613798 -176.34619141 149.80932617 C-179.02669839 144.10463574 -179.02669839 144.10463574 -183.82324219 140.34960938 C-186.37121979 139.93703035 -186.37121979 139.93703035 -188.92089844 139.80273438 C-195.33025606 138.93797978 -199.65763219 133.30232429 -203.38183594 128.47070312 C-198.44599683 143.23454044 -192.36257729 156.09156638 -182.17480469 168.06445312 C-180.38183594 170.47070312 -180.38183594 170.47070312 -179.81933594 174.03320312 C-180.38183594 177.47070312 -180.38183594 177.47070312 -182.50683594 179.97070312 C-185.38183594 181.47070312 -185.38183594 181.47070312 -188.19433594 181.78320312 C-197.44103135 177.97574031 -202.69350261 166.74589387 -207.38183594 158.47070312 C-208.00316406 157.38917969 -208.62449219 156.30765625 -209.26464844 155.19335938 C-225.82181127 124.48018069 -224.30381231 84.54369991 -214.5637207 51.85424805 C-205.04833555 21.95712156 -185.67708736 -3.24782583 -157.94042969 -17.90429688 C-110.31913671 -42.18833084 -40.74987228 -35.39118072 0 0 Z M-172.38183594 8.47070312 C-172.99542969 9.00050781 -173.60902344 9.5303125 -174.24121094 10.07617188 C-193.25181195 27.73510171 -204.57304006 57.9750596 -205.62792969 83.48242188 C-205.63109956 86.16096576 -205.58086636 88.80037836 -205.38183594 91.47070312 C-202.71712756 89.41507095 -200.4375555 87.53993047 -198.31933594 84.90820312 C-194.95889943 82.11975581 -193.7695868 82.23699907 -189.56933594 81.78320312 C-186.18279965 81.10756411 -184.10786821 80.51996894 -182.09863281 77.61621094 C-179.72025976 73.01630246 -177.91183208 68.20728096 -176.26635742 63.30249023 C-175.38183594 61.47070312 -175.38183594 61.47070312 -172.38183594 59.47070312 C-170.32324219 59.1394043 -170.32324219 59.1394043 -167.94433594 59.01367188 C-167.05875 58.95598633 -166.17316406 58.89830078 -165.26074219 58.83886719 C-164.31070313 58.77924805 -163.36066406 58.71962891 -162.38183594 58.65820312 C-133.55098946 56.41348873 -105.6577549 44.37746884 -85.94042969 22.79882812 C-79.41660902 15.40011542 -79.41660902 15.40011542 -76.38183594 6.47070312 C-70.42480469 5.39648438 -70.42480469 5.39648438 -68.38183594 5.47070312 C-65.2352102 7.73208888 -63.57125341 11.31420876 -61.63183594 14.59570312 C-51.58670937 31.11741358 -38.9715913 41.89565908 -19.88183594 46.78320312 C-14.82516708 47.76406356 -9.65573334 47.80730847 -4.51855469 47.93164062 C-0.81491895 48.56813095 0.41544941 49.46848463 2.61816406 52.47070312 C2.61816406 55.59570312 2.61816406 55.59570312 1.61816406 58.47070312 C-5.74853703 63.18159782 -17.36155565 60.00386168 -25.38183594 58.47070312 C-40.09107106 55.00858146 -54.67558745 46.68231761 -64.13183594 34.84570312 C-64.88980469 33.9046875 -65.64777344 32.96367187 -66.42871094 31.99414062 C-67.81451195 30.20368572 -69.12593623 28.35455268 -70.38183594 26.47070312 C-71.04183594 26.47070312 -71.70183594 26.47070312 -72.38183594 26.47070312 C-73.84825348 27.92074556 -73.84825348 27.92074556 -75.38183594 29.84570312 C-93.59092548 50.98456471 -120.01248467 67.71567426 -148.38183594 70.47070312 C-149.83263497 70.43019336 -151.28317592 70.37982887 -152.73339844 70.32226562 C-159.80490264 70.19573489 -159.80490264 70.19573489 -166.38183594 72.47070312 C-170.61225662 77.62457846 -172.66673285 84.14361796 -174.61425781 90.43945312 C-175.38183594 92.47070312 -175.38183594 92.47070312 -177.38183594 94.47070312 C-180.41925757 94.53269132 -183.4048618 94.33661063 -186.43652344 94.15039062 C-189.46679659 94.22386399 -189.46679659 94.22386399 -191.67871094 96.21679688 C-194.75580184 100.28900204 -195.56412916 104.71293382 -195.22949219 109.77539062 C-194.22040374 115.33018225 -191.93205962 120.07769637 -188.38183594 124.47070312 C-184.90760848 126.78685477 -183.58168317 126.60586484 -179.50683594 126.59570312 C-173.93689509 126.99116222 -173.93689509 126.99116222 -171.65917969 128.95898438 C-170.34040393 131.0749622 -169.33863873 133.16827727 -168.38183594 135.47070312 C-159.41832961 155.82028506 -141.93881933 170.23509834 -121.87792969 179.00195312 C-118.41106177 180.31960397 -114.94064855 181.42760288 -111.38183594 182.47070312 C-110.14433594 182.86257813 -108.90683594 183.25445312 -107.63183594 183.65820312 C-87.53191076 189.4215963 -62.29024953 188.70215988 -42.38183594 182.47070312 C-41.68219727 182.25639648 -40.98255859 182.04208984 -40.26171875 181.82128906 C-16.15600154 174.20019945 2.15964101 158.53708472 13.86791992 136.25561523 C19.06542617 125.88568596 22.25072844 114.9985034 23.61816406 103.47070312 C23.72902344 102.54644531 23.83988281 101.6221875 23.95410156 100.66992188 C24.24010871 97.93739417 24.45003084 95.21287592 24.61816406 92.47070312 C24.699375 91.28541016 24.699375 91.28541016 24.78222656 90.07617188 C25.70897442 63.32685865 15.71489217 36.92353822 -1.97460938 16.96630859 C-24.01237419 -6.45550738 -59.39256525 -15.30308398 -90.58056641 -16.66943359 C-121.65664105 -17.55255122 -148.26922603 -12.56459818 -172.38183594 8.47070312 Z M-205.38183594 120.47070312 C-204.38183594 123.47070312 -204.38183594 123.47070312 -204.38183594 123.47070312 Z " fill="#FEDB06" transform="translate(309.3818359375,117.529296875)"/>
<path d="M0 0 C3.74263668 1.14304754 4.36469628 2.21194292 6.28125 5.55078125 C14.41363518 18.05254004 28.87790668 22.39494495 42.46875 26.61328125 C43.42160889 26.91105469 44.37446777 27.20882812 45.35620117 27.515625 C55.28993606 30.50193867 64.78787154 32.080828 75.16430664 32.04931641 C90.25262711 32.05640734 102.20496204 35.24154559 113.3046875 46.0234375 C124.4616095 58.31624522 131.25406849 70.76106896 135.03125 86.92578125 C136.2275 87.17328125 137.42375 87.42078125 138.65625 87.67578125 C144.48799157 89.17742899 148.39817839 91.64555816 151.78125 96.67578125 C157.21096324 106.15595581 157.16473629 116.96575422 154.78515625 127.44921875 C151.72928869 137.48766451 146.23843227 145.36773504 137.25390625 150.78515625 C135.03125 151.92578125 135.03125 151.92578125 131.52734375 153.09765625 C126.9776929 155.47669156 125.97832483 157.85113663 124.03125 162.42578125 C123.36003262 163.87711943 122.68421611 165.3263391 122.00390625 166.7734375 C121.50914795 167.83715576 121.50914795 167.83715576 121.00439453 168.92236328 C115.56120116 180.12829525 107.75013902 190.18078019 98.03125 197.92578125 C97.16886719 198.63605469 96.30648437 199.34632813 95.41796875 200.078125 C75.86068331 215.55987328 50.50805617 223.9046533 25.640625 224.1640625 C24.47309692 224.17875328 24.47309692 224.17875328 23.28198242 224.19374084 C-8.6458173 224.51316991 -8.6458173 224.51316991 -23.96875 219.92578125 C-25.09385986 219.61229736 -25.09385986 219.61229736 -26.24169922 219.29248047 C-42.04895233 214.84512896 -56.6414556 207.89842791 -68.96875 196.92578125 C-69.67257812 196.34054687 -70.37640625 195.7553125 -71.1015625 195.15234375 C-85.64420594 182.93209964 -94.89255939 166.94238295 -101.28125 149.23828125 C-101.64488647 148.24235962 -101.64488647 148.24235962 -102.01586914 147.22631836 C-105.65113907 136.70830495 -106.35983379 126.31091947 -106.34375 115.23828125 C-106.34287384 114.57592468 -106.34199768 113.91356812 -106.34109497 113.23114014 C-106.29567988 102.81584093 -105.64396539 93.70467293 -101.96875 83.92578125 C-101.72205566 83.26481445 -101.47536133 82.60384766 -101.22119141 81.92285156 C-91.95016897 57.64404143 -75.86349628 41.30924435 -52.5234375 30.30078125 C-47.71037782 28.19575287 -42.86673674 26.23037508 -37.91796875 24.46875 C-23.25253491 19.25738907 -23.25253491 19.25738907 -11.96875 8.92578125 C-11.30875 8.92578125 -10.64875 8.92578125 -9.96875 8.92578125 C-9.741875 8.36890625 -9.515 7.81203125 -9.28125 7.23828125 C-6.97875941 3.18151211 -4.9461976 -0.12365494 0 0 Z M-1.96875 18.92578125 C-2.52820313 19.49425781 -3.08765625 20.06273438 -3.6640625 20.6484375 C-12.64036423 29.2928181 -22.71841618 33.92504879 -34.34375 37.86328125 C-47.70123727 42.39201319 -59.62907309 48.12943131 -69.96875 57.92578125 C-70.75765625 58.66183594 -71.5465625 59.39789063 -72.359375 60.15625 C-86.9690064 74.98949821 -92.22736649 96.11503213 -92.2175293 116.37768555 C-91.91830657 138.91410785 -83.79538978 160.04422122 -68.96875 176.92578125 C-68.35773438 177.66957031 -67.74671875 178.41335938 -67.1171875 179.1796875 C-63.19600638 183.8976383 -59.06162398 187.51917658 -53.96875 190.92578125 C-52.56496094 191.88484375 -52.56496094 191.88484375 -51.1328125 192.86328125 C-24.29856428 210.35523564 11.69899533 213.89714463 42.6796875 207.89453125 C68.47181327 202.35866035 90.13003638 189.76926524 105.890625 168.25 C109.99196622 161.88094639 112.96115515 154.99610628 115.82128906 147.99072266 C116.98242328 145.17944087 117.85738705 143.0996442 120.03125 140.92578125 C121.984375 140.43359375 121.984375 140.43359375 124.28125 140.05078125 C130.41880499 138.75245231 134.28377699 136.36965784 137.78125 131.11328125 C141.46187879 124.69880921 142.8990006 118.2692826 142.03125 110.92578125 C140.99008733 107.38582817 139.67443441 104.56896566 137.03125 101.92578125 C134.48934998 101.67570395 134.48934998 101.67570395 132.03125 101.92578125 C131.70125 102.25578125 131.37125 102.58578125 131.03125 102.92578125 C127.90314024 103.34849879 126.51333064 103.28643556 123.953125 101.37109375 C121.49263456 98.24046973 121.10490354 95.32011377 120.59375 91.48828125 C118.01396769 75.63020762 111.68934344 63.885655 99.94921875 52.93359375 C92.1071556 47.53758243 84.69727649 46.39109228 75.34375 46.36328125 C65.8462293 46.13401579 57.24815229 45.37596504 48.03125 42.92578125 C47.26893066 42.72855469 46.50661133 42.53132813 45.72119141 42.328125 C29.53796097 38.07624774 15.43521125 32.15263331 2.2890625 21.7109375 C0.16797861 19.90917471 0.16797861 19.90917471 -1.96875 18.92578125 Z " fill="#FEDC05" transform="translate(541.96875,83.07421875)"/>
<path d="M0 0 C0.85980469 0.71414063 1.71960938 1.42828125 2.60546875 2.1640625 C3.57033203 2.95683594 3.57033203 2.95683594 4.5546875 3.765625 C15.09100621 13.34409656 23.38846699 28.07496663 25.35546875 42.1015625 C25.8893114 44.95217861 26.27855924 45.8943786 28.546875 47.765625 C30.13377146 48.74338328 31.73444001 49.69911822 33.34765625 50.6328125 C36.96594467 53.08673821 38.68444323 56.32201146 40.60546875 60.1640625 C41.05921875 60.9684375 41.51296875 61.7728125 41.98046875 62.6015625 C43.57984824 69.15901842 41.58654675 76.25200865 38.60546875 82.1640625 C35.32485029 87.08499018 31.9313558 89.40336947 26.69140625 92.0859375 C22.31184548 94.3495307 20.96430757 96.11893038 18.98046875 100.5390625 C10.01210614 119.05295958 -5.16701577 132.91667089 -24.38671875 140.16796875 C-46.4586704 147.47751118 -70.98688422 146.54240835 -91.89453125 136.2890625 C-97.47778378 133.40869668 -102.59513058 130.24059048 -107.39453125 126.1640625 C-108.36390625 125.4421875 -109.33328125 124.7203125 -110.33203125 123.9765625 C-119.14675892 116.40739417 -124.92033908 106.73811794 -129.39453125 96.1640625 C-129.39453125 95.5040625 -129.39453125 94.8440625 -129.39453125 94.1640625 C-130.36390625 93.9990625 -131.33328125 93.8340625 -132.33203125 93.6640625 C-138.57311136 91.83740491 -143.54840704 87.2392908 -146.85546875 81.73046875 C-149.81948842 74.99310488 -150.8065423 69.14758271 -148.32421875 62.14453125 C-145.28774641 55.41617313 -141.95910669 50.70529403 -135.39453125 47.1640625 C-133.90953125 46.6690625 -133.90953125 46.6690625 -132.39453125 46.1640625 C-131.38421147 43.11875636 -131.38421147 43.11875636 -130.64453125 39.4140625 C-128.51523183 30.38792094 -124.54551436 22.89053717 -119.39453125 15.1640625 C-118.73453125 15.1640625 -118.07453125 15.1640625 -117.39453125 15.1640625 C-117.06388672 14.35195313 -117.06388672 14.35195313 -116.7265625 13.5234375 C-108.02984322 -1.88072217 -87.97033803 -11.99216428 -71.70703125 -16.7109375 C-45.66553647 -22.00805032 -20.82702724 -16.45252614 0 0 Z M-58.39453125 -4.8359375 C-60.1061596 -3.12430915 -59.76181539 -0.8647015 -59.98974609 1.43457031 C-60.85241797 10.03802605 -62.22153784 17.61610528 -67.26953125 24.8515625 C-69.39453125 26.1640625 -69.39453125 26.1640625 -72.51953125 26.0390625 C-75.39453125 25.1640625 -75.39453125 25.1640625 -77.39453125 23.1640625 C-77.2656757 17.23670733 -74.92324038 12.45399918 -72.453125 7.12890625 C-71.3166652 3.94598009 -71.20023544 1.51691076 -71.39453125 -1.8359375 C-88.80356303 2.96655403 -103.08849911 13.89315539 -112.39697266 29.36669922 C-116.66733879 37.06088313 -119.79332211 45.44419929 -120.77734375 54.2109375 C-121.63802372 56.9346083 -122.97604501 57.72604366 -125.39453125 59.1640625 C-126.57015625 59.4528125 -127.74578125 59.7415625 -128.95703125 60.0390625 C-132.43003665 60.87139643 -132.43003665 60.87139643 -134.33203125 63.2265625 C-135.81001087 67.31274146 -136.05798015 70.87115785 -135.39453125 75.1640625 C-134.18950309 78.21266363 -134.18950309 78.21266363 -131.39453125 80.1640625 C-128.85496838 81.00365612 -126.35502902 81.6593592 -123.734375 82.1953125 C-119.13062025 84.10137457 -117.72431694 89.49435036 -115.69360352 93.78540039 C-107.5856533 110.7657475 -96.61162424 120.74687735 -79.39453125 128.1640625 C-60.95194438 134.60955842 -40.90300845 133.55708632 -23.09765625 125.53515625 C-6.33685331 117.03365071 4.06346497 104.07096812 10.5 86.52734375 C11.60546875 84.1640625 11.60546875 84.1640625 14.60546875 82.1640625 C16.07373795 81.67193544 17.55438147 81.21580759 19.04296875 80.7890625 C22.81474814 79.5808665 25.12289473 78.37072061 27.60546875 75.1640625 C29.21451299 71.94597403 29.06183884 68.6539514 28.60546875 65.1640625 C27.0034188 62.02961694 25.72207322 60.58452458 22.40625 59.3359375 C20.82662724 58.85772642 19.23344093 58.42163055 17.62890625 58.03515625 C15.60546875 57.1640625 15.60546875 57.1640625 14.41796875 55.51953125 C13.3414163 52.39856429 12.79805329 49.29098805 12.23046875 46.0390625 C8.53399818 26.63317654 -2.33207888 14.219516 -18.39453125 3.1640625 C-24.09095289 -0.25701792 -28.74957372 -2.05893881 -35.39453125 -2.8359375 C-35.43191406 -1.56878906 -35.46929687 -0.30164063 -35.5078125 1.00390625 C-35.57352918 2.70315181 -35.63997448 4.4023693 -35.70703125 6.1015625 C-35.72958984 6.93236328 -35.75214844 7.76316406 -35.77539062 8.61914062 C-36.02359242 14.41803714 -36.81892112 19.89576906 -39.39453125 25.1640625 C-41.83203125 26.8515625 -41.83203125 26.8515625 -44.39453125 27.1640625 C-46.64453125 26.6640625 -46.64453125 26.6640625 -48.39453125 25.1640625 C-49.2569947 22.17861208 -49.55853314 19.96064311 -48.9296875 16.90625 C-48.28679384 13.61200655 -48.11282661 10.45660713 -48.01953125 7.1015625 C-47.94605469 5.28978516 -47.94605469 5.28978516 -47.87109375 3.44140625 C-48.09398689 0.00678901 -48.09398689 0.00678901 -50.74609375 -2.21875 C-53.40928998 -3.84494947 -55.29739984 -4.57784322 -58.39453125 -4.8359375 Z " fill="#FEDB06" transform="translate(445.39453125,300.8359375)"/>
<path d="M0 0 C3.15816455 1.32202237 4.28499486 1.98998851 5.6875 5.125 C5.99850666 8.29726795 6.00798813 9.34215312 4.6875 12.125 C-4.82008288 23.44730824 -19.76509691 29.80250881 -34.3125 31.125 C-50.45578619 32.4840857 -66.6906677 26.87616286 -79.3125 17.125 C-80.3025 16.3825 -81.2925 15.64 -82.3125 14.875 C-85.08543028 12.448686 -86.24012465 10.81980331 -86.625 7.125 C-86.3125 4.125 -86.3125 4.125 -85.3125 2.25 C-81.90500645 0.33328488 -79.00609388 0.15879498 -75.3125 1.125 C-72.47417567 2.92724889 -69.88949046 4.94788835 -67.2421875 7.01953125 C-62.61638104 10.34394416 -57.67037054 12.27720254 -52.3125 14.125 C-51.58804688 14.39441406 -50.86359375 14.66382813 -50.1171875 14.94140625 C-39.81458473 18.05569112 -26.59854367 14.98231515 -17.3125 10.125 C-14.4742343 8.42204058 -11.91526163 6.63136857 -9.3828125 4.50390625 C-4.05735472 0.15310773 -4.05735472 0.15310773 0 0 Z " fill="#FEDB05" transform="translate(590.3125,229.875)"/>
<path d="M0 0 C4.42914912 1.37957104 6.88932143 3.46956256 10.40625 6.40234375 C19.42421422 13.09261916 30.92017212 14.42866899 41.8125 13.1875 C49.9511661 11.13514072 56.43475116 7.54418068 62.8125 2.1875 C66.30815336 -0.14293558 67.6990729 -0.40013244 71.8125 0.1875 C74.3125 2.3125 74.3125 2.3125 75.8125 5.1875 C74.78206296 12.25335397 69.20252265 16.10793148 63.8125 20.1875 C49.65666589 28.25119937 35.5594472 30.67443775 19.8125 27.1875 C11.1879982 24.75157201 4.45987703 21.17152132 -2.1875 15.1875 C-3.198125 14.341875 -4.20875 13.49625 -5.25 12.625 C-7.1875 10.1875 -7.1875 10.1875 -7.75 7.125 C-7.1875 4.1875 -7.1875 4.1875 -5.625 1.75 C-3.1875 0.1875 -3.1875 0.1875 0 0 Z " fill="#FEDB05" transform="translate(197.1875,251.8125)"/>
<path d="M0 0 C2.5 1.1875 2.5 1.1875 4.5 3.1875 C5.125 5.875 5.125 5.875 4.5 9.1875 C-0.4612258 15.13840038 -7.83520821 19.77591184 -15.5 21.1875 C-29.5047865 22.0839239 -40.56538011 20.77927183 -51.5 11.1875 C-53.5 9.1875 -53.5 9.1875 -53.8125 6.25 C-53.5 3.1875 -53.5 3.1875 -52.375 1.3125 C-49.42365426 -0.45830745 -47.92437009 -0.38322835 -44.5 0.1875 C-42.13071455 1.5539133 -39.94635294 3.05596681 -37.74609375 4.6796875 C-31.133703 9.11861416 -24.23525341 8.91909259 -16.5 8.1875 C-11.82163804 6.64132927 -8.25351809 3.29755785 -4.5 0.1875 C-2.5 -0.8125 -2.5 -0.8125 0 0 Z " fill="#FEDA05" transform="translate(413.5,391.8125)"/>
<path d="M0 0 C0.33 0.66 0.66 1.32 1 2 C0.02723103 4.53846378 -1.0142277 6.92917005 -2.1875 9.375 C-2.54408691 10.12305908 -2.90067383 10.87111816 -3.26806641 11.6418457 C-9.64025767 24.68589054 -17.28506672 37.14312634 -25.96630859 48.77612305 C-27.7727276 51.2016381 -29.03406929 53.10220786 -30 56 C-31.64106488 57.69188109 -33.31384218 59.35305515 -35 61 C-37.27187375 63.50483295 -39.47921482 66.06408944 -41.6875 68.625 C-42.26822266 69.29273438 -42.84894531 69.96046875 -43.44726562 70.6484375 C-45.80560701 73.37484373 -47.99599647 75.99399471 -50 79 C-50.66 79 -51.32 79 -52 79 C-52.20995605 79.53520264 -52.41991211 80.07040527 -52.63623047 80.62182617 C-54.5290804 83.92262302 -57.13359335 86.39883588 -59.8203125 89.05078125 C-60.39780243 89.62781296 -60.97529236 90.20484467 -61.57028198 90.79936218 C-62.79351367 92.01957662 -64.01917105 93.23736351 -65.24707031 94.45288086 C-67.10271027 96.2904276 -68.95038537 98.13568538 -70.796875 99.98242188 C-76.21064699 105.37940378 -81.61373538 110.7386705 -87.46313477 115.66918945 C-89.00160618 117.00139083 -90.40472961 118.40652546 -91.8125 119.875 C-94 122 -94 122 -97 123 C-97 123.66 -97 124.32 -97 125 C-98.65365406 126.02137457 -100.32376502 127.01612294 -102 128 C-103.07643268 128.87904283 -104.13889288 129.77544369 -105.1875 130.6875 C-108 133 -108 133 -110 133 C-110 133.66 -110 134.32 -110 135 C-111.85759294 136.62968658 -113.72332227 138.13164247 -115.6875 139.625 C-116.30399414 140.1008252 -116.92048828 140.57665039 -117.55566406 141.06689453 C-118.93824451 142.13163652 -120.32333433 143.19312524 -121.71044922 144.25195312 C-124.13631362 146.10407395 -126.55458092 147.96584886 -128.97265625 149.828125 C-149.74954368 165.79028598 -171.14386106 180.5697599 -193 195 C-193.66 194.67 -194.32 194.34 -195 194 C-191.99477795 190.78476691 -188.83295797 188.40427228 -185.16015625 185.98828125 C-184.59735458 185.61575729 -184.03455292 185.24323334 -183.45469666 184.85942078 C-181.66017934 183.67267716 -179.86159667 182.49228712 -178.0625 181.3125 C-175.71864747 179.76905059 -173.37645838 178.22309639 -171.03515625 176.67578125 C-170.16173836 176.0985733 -170.16173836 176.0985733 -169.27067566 175.50970459 C-160.17430616 169.48243825 -151.1894957 163.31269346 -142.5625 156.625 C-141.85077637 156.07682617 -141.13905273 155.52865234 -140.40576172 154.96386719 C-138.26701626 153.31369184 -136.13261563 151.65808731 -134 150 C-133.35820801 149.50145508 -132.71641602 149.00291016 -132.05517578 148.48925781 C-120.97130249 139.86491836 -110.11120718 130.99358012 -99.43359375 121.87109375 C-97.63553533 120.34098024 -95.82391366 118.86677143 -93.94067383 117.44189453 C-85.96388257 111.34548416 -79.01196177 104.2800371 -71.95825195 97.1640625 C-69.81190283 94.99939773 -67.65760004 92.84290198 -65.50195312 90.6875 C-64.11150611 89.2921379 -62.7215164 87.89631992 -61.33203125 86.5 C-60.38333916 85.54963867 -60.38333916 85.54963867 -59.41548157 84.58007812 C-46.25794842 71.28444848 -34.52748522 56.44478193 -24 41 C-22.89591797 39.39318359 -22.89591797 39.39318359 -21.76953125 37.75390625 C-14.63569625 27.03421436 -7.49712589 15.36062074 -2.98217773 3.27563477 C-2 1 -2 1 0 0 Z " fill="#FED619" transform="translate(712,254)"/>
<path d="M0 0 C0.66 0 1.32 0 2 0 C2.38929688 1.06476563 2.77859375 2.12953125 3.1796875 3.2265625 C9.5884759 20.09776149 19.71316694 35.85203442 35 46 C36.40185547 46.95712891 36.40185547 46.95712891 37.83203125 47.93359375 C64.66047117 65.43327897 100.67085635 68.97076061 131.6484375 62.96875 C158.46798226 57.2123599 180.4445816 43.96422439 196 21 C196.83000945 19.45752579 197.62944317 17.89751968 198.375 16.3125 C198.91125 15.219375 199.4475 14.12625 200 13 C200.99 12.67 201.98 12.34 203 12 C199.75895433 23.00978327 191.92275205 31.94041285 184 40 C183.32582031 40.68707031 182.65164063 41.37414062 181.95703125 42.08203125 C158.52937718 64.36687293 125.54115974 68.79873611 94.61816406 68.140625 C89.00479299 67.92245349 83.45166284 67.41589641 77.875 66.75 C76.91142578 66.64075195 75.94785156 66.53150391 74.95507812 66.41894531 C68.6923524 65.57936104 63.6504916 63.76112489 58 61 C56.6853253 60.44278265 55.36638468 59.89550093 54.04296875 59.359375 C31.98009649 50.22728888 14.48440698 35.59708585 4.375 13.6875 C3 10 3 10 3 8 C2.01 7.67 1.02 7.34 0 7 C0 4.69 0 2.38 0 0 Z " fill="#FED718" transform="translate(453,227)"/>
<path d="M0 0 C4.29075175 3.41309799 6.57361948 6.58239617 7.25390625 12.03515625 C7.55869918 17.7672297 6.36854339 22.30206491 3 27 C-0.5086396 29.33909307 -1.87089433 29.41291057 -6 29 C-9.71536728 27.53113387 -10.82257758 26.31201874 -12.8125 22.8125 C-14.61411608 17.02836415 -14.64217633 13.02792524 -12.8125 7.25 C-9.74715317 1.75351603 -6.49881505 -1.21852782 0 0 Z " fill="#FEDB06" transform="translate(511,171)"/>
<path d="M0 0 C4.52931686 3.29404863 7.05645513 7.51564544 8 13 C7.67964834 18.90648371 5.65582889 23.43021389 2 28 C-1.13871188 29.56935594 -3.53855822 29.35201103 -7 29 C-10.15954305 26.45862841 -11.71540886 24.85377341 -13 21 C-13.14554833 18.8783532 -13.22080412 16.75143294 -13.25 14.625 C-13.27578125 13.50351563 -13.3015625 12.38203125 -13.328125 11.2265625 C-12.96708131 7.67629959 -12.04602685 5.87978279 -10 3 C-9.5875 2.401875 -9.175 1.80375 -8.75 1.1875 C-5.77759896 -0.82948642 -3.47356049 -0.47911179 0 0 Z " fill="#FEDC06" transform="translate(593,171)"/>
<path d="M0 0 C4.17334972 2.42935461 7.68510801 4.59252869 10.2265625 8.80078125 C10.00618622 12.47371921 9.85689704 14.17044671 7.2265625 16.80078125 C0.84657861 17.43877964 -1.44858006 16.46901638 -6.7734375 12.80078125 C-9.42471219 12.63100631 -9.42471219 12.63100631 -11.7734375 13.80078125 C-12.7015625 14.85265625 -12.7015625 14.85265625 -13.6484375 15.92578125 C-15.7734375 17.80078125 -15.7734375 17.80078125 -19.3359375 17.80078125 C-22.7734375 16.80078125 -22.7734375 16.80078125 -24.8359375 15.11328125 C-25.7734375 12.80078125 -25.7734375 12.80078125 -25.4609375 9.98828125 C-20.41258117 0.45249707 -10.26479649 -4.43844017 0 0 Z " fill="#FEDA05" transform="translate(279.7734375,200.19921875)"/>
<path d="M0 0 C4.28751689 2.37161997 8.01616629 5.04359485 9.80078125 9.68359375 C9.88547613 13.15608383 9.12232223 14.62269133 6.86328125 17.24609375 C4.05078125 18.37109375 4.05078125 18.37109375 0.86328125 18.24609375 C-1.13671875 16.57942708 -3.13671875 14.91276042 -5.13671875 13.24609375 C-9.09715359 13.16526855 -10.64955976 13.84210825 -13.69921875 16.37109375 C-16.13671875 18.24609375 -16.13671875 18.24609375 -18.76171875 18.24609375 C-21.74261175 16.99098091 -22.74624323 16.18154208 -24.13671875 13.24609375 C-24.27132676 9.61167739 -24.05259388 7.29280819 -21.60546875 4.49609375 C-15.47947711 -0.90308532 -7.97142122 -2.81258555 0 0 Z " fill="#FEDA05" transform="translate(200.13671875,199.75390625)"/>
<path d="M0 0 C0.85980469 0.71414063 1.71960938 1.42828125 2.60546875 2.1640625 C3.57033203 2.95683594 3.57033203 2.95683594 4.5546875 3.765625 C8.69944389 7.53358535 11.81724139 12.0740843 14.98046875 16.6640625 C15.42213379 17.29328613 15.86379883 17.92250977 16.31884766 18.57080078 C19.1477573 22.82136208 20.25048299 26.0627857 20.60546875 31.1640625 C18.32649172 28.30209135 16.70718148 25.4456203 15.10546875 22.1640625 C5.80434064 5.04360365 -11.28196359 -6.85522911 -29.51171875 -12.86328125 C-37.17163806 -14.8563298 -44.63586305 -15.10550481 -52.51953125 -15.1484375 C-53.52806152 -15.15407715 -54.5365918 -15.1597168 -55.57568359 -15.16552734 C-60.16452533 -15.11977077 -63.32417745 -15.07227517 -67.39453125 -12.8359375 C-69.33203125 -12.59765625 -69.33203125 -12.59765625 -71.39453125 -12.5234375 C-82.43294516 -11.43946887 -91.61682654 -5.16319965 -100.39453125 1.1640625 C-101.19890625 1.71964844 -102.00328125 2.27523438 -102.83203125 2.84765625 C-115.67005377 12.14184964 -123.77677074 26.19694928 -128.39453125 41.1640625 C-128.72453125 41.1640625 -129.05453125 41.1640625 -129.39453125 41.1640625 C-129.89215698 35.03202934 -128.40655517 31.26854284 -125.51953125 25.9140625 C-125.15472656 25.20765625 -124.78992188 24.50125 -124.4140625 23.7734375 C-122.85707962 20.78403037 -121.26777808 17.97393275 -119.39453125 15.1640625 C-118.73453125 15.1640625 -118.07453125 15.1640625 -117.39453125 15.1640625 C-117.17410156 14.62265625 -116.95367187 14.08125 -116.7265625 13.5234375 C-108.02984322 -1.88072217 -87.97033803 -11.99216428 -71.70703125 -16.7109375 C-45.66553647 -22.00805032 -20.82702724 -16.45252614 0 0 Z " fill="#FED717" transform="translate(445.39453125,300.8359375)"/>
<path d="M0 0 C10.49055468 9.53456569 18.80601216 20.7612146 25.49316406 33.22070312 C25.8748877 33.9299292 26.25661133 34.63915527 26.64990234 35.36987305 C28.88811937 39.66960576 30.44793584 43.76515385 31.61816406 48.47070312 C30.62816406 48.96570313 30.62816406 48.96570313 29.61816406 49.47070312 C27.13801614 46.16383923 25.74473221 44.0613545 24.86816406 39.97070312 C20.39229282 19.8866655 0.14528999 2.05820659 -16.15673828 -8.70068359 C-46.35254538 -27.3852412 -82.98849096 -28.99171645 -117.38183594 -28.52929688 C-117.38183594 -29.18929687 -117.38183594 -29.84929687 -117.38183594 -30.52929688 C-77.51390216 -35.44692747 -30.98730891 -26.9124144 0 0 Z " fill="#FED618" transform="translate(309.3818359375,117.529296875)"/>
<path d="M0 0 C2.86867292 2.55686064 4.5928394 4.21911493 5.44921875 7.96484375 C5.73024174 13.01356719 4.33322507 16.11123742 1 20 C-1.51034664 21.92459909 -2.75386786 22 -5.9375 22 C-9.21534034 20.92968479 -11.01517385 19.66132364 -13.078125 16.875 C-14.84422461 13.28293301 -14.87600104 9.86268177 -14 6 C-10.7161132 0.00659444 -6.57348442 -1.97204532 0 0 Z " fill="#FEDB06" transform="translate(420,353)"/>
<path d="M0 0 C3.00866351 1.33501303 4.91659458 2.76269304 7.125 5.1875 C24.46718846 22.85827729 51.18105392 31.10983273 75.38085938 31.38037109 C76.75390734 31.38082302 78.12695776 31.37899 79.5 31.375 C80.20487549 31.37445618 80.90975098 31.37391235 81.63598633 31.37335205 C93.14204135 31.33261746 103.97123278 30.45207244 115 27 C115.69963867 26.78569336 116.39927734 26.57138672 117.12011719 26.35058594 C127.77092811 22.98330241 137.38535526 18.14600858 146.234375 11.26171875 C148 10 148 10 150 10 C147.22027859 17.55213467 136.13102218 21.59571189 129.17773438 24.85571289 C102.67173241 36.76585582 69.56112536 38.19139068 42 29 C40.80246094 28.62746094 39.60492188 28.25492187 38.37109375 27.87109375 C23.90031945 22.87336544 11.37517388 14.18101263 1 3 C0.67 2.01 0.34 1.02 0 0 Z " fill="#FED71C" transform="translate(152,272)"/>
<path d="M0 0 C2.39909181 2.14655583 3.76835839 3.71425894 4.34765625 6.9296875 C4.54234434 11.41597825 3.87177043 14.41028696 1 18 C-0.75 19.875 -0.75 19.875 -3 21 C-7.21478528 21 -9.2457754 20.69468055 -12.375 17.8125 C-14.95901183 13.34017184 -15.25755733 10.38144386 -14.3125 5.3125 C-12.94574168 1.86306233 -12.19611655 0.7433363 -9 -1 C-5.12858486 -2.29047171 -3.68452784 -1.6542778 0 0 Z " fill="#FEDB05" transform="translate(369,354)"/>
<path d="M0 0 C0.99 0 1.98 0 3 0 C4.98046875 2.08984375 4.98046875 2.08984375 7.1875 4.9375 C13.04829471 12.32513605 18.87970683 19.18702654 26.09375 25.27734375 C27.95105481 26.9557688 29.47895077 28.68999979 31.0625 30.625 C34.96913911 35.23465617 39.5043935 39.01932986 44.09228516 42.92456055 C49.00221422 47.10810075 53.76732313 51.41503746 58.43603516 55.86621094 C61.74859112 58.98352134 65.23018217 61.71707361 68.8918457 64.41333008 C73.33716379 67.7590304 77.55719776 71.39201983 81.8203125 74.96484375 C85.75275097 78.23475183 89.71241242 81.20029049 94 84 C96.54545776 85.86336017 99.05214905 87.77721101 101.5625 89.6875 C107.81467941 94.42766681 114.17881962 98.92431494 120.71875 103.2578125 C121.4715625 103.83273437 122.224375 104.40765625 123 105 C123 105.66 123 106.32 123 107 C118.11816203 105.42581808 114.56031254 102.59808739 110.5625 99.5 C109.12997432 98.40615189 107.69636109 97.31372676 106.26171875 96.22265625 C105.5454834 95.67754395 104.82924805 95.13243164 104.09130859 94.57080078 C101.06317445 92.29634186 97.97282015 90.11550314 94.875 87.9375 C84.67951337 80.72087614 74.97661174 72.92723287 65.50097656 64.79345703 C61.89150545 61.70685323 58.19233423 58.83054976 54.29296875 56.12109375 C53.86628906 55.75113281 53.43960938 55.38117188 53 55 C53 54.34 53 53.68 53 53 C52.45859375 52.77570313 51.9171875 52.55140625 51.359375 52.3203125 C48.26197028 50.58699661 45.82039058 48.2886694 43.25 45.875 C42.72067871 45.38435059 42.19135742 44.89370117 41.64599609 44.38818359 C37.91606668 40.91212966 34.30241567 37.33354297 30.73046875 33.6953125 C28.84210995 31.79422399 28.84210995 31.79422399 25.9375 29.5 C22.92181588 26.93346032 20.49855569 24.20653653 17.9453125 21.1953125 C15.04089526 17.91763682 11.88327957 14.91152332 8.72265625 11.8828125 C7 10 7 10 7 8 C6.34 8 5.68 8 5 8 C3.7109375 6.50390625 3.7109375 6.50390625 2.375 4.5625 C1.92898437 3.92441406 1.48296875 3.28632813 1.0234375 2.62890625 C0 1 0 1 0 0 Z " fill="#FED613" transform="translate(104,321)"/>
<path d="M0 0 C3.43112046 0.69104534 6.19781315 2.04869028 9.3125 3.625 C15.57753241 6.55907627 21.95107566 8.72435846 28.5625 10.75 C29.50714111 11.04342285 30.45178223 11.3368457 31.42504883 11.63916016 C41.31935517 14.59541186 50.80365758 16.15490391 61.13305664 16.12353516 C76.22137711 16.13062609 88.17371204 19.31576434 99.2734375 30.09765625 C107.42935353 39.08392572 118.1102052 51.14329756 118.1875 64 C118.125625 64.99 118.06375 65.98 118 67 C116.00723128 64.01084692 115.01010027 61.43458266 113.8125 58.0625 C107.71357902 42.07728144 98.91836496 31.4065531 84 23 C82.73542969 22.17628906 82.73542969 22.17628906 81.4453125 21.3359375 C76.22470637 19.31162084 71.11408299 19.55574514 65.5625 19.5 C55.65165972 19.24543841 46.60071421 18.6128526 37 16 C36.22462891 15.79213867 35.44925781 15.58427734 34.65039062 15.37011719 C7.19788768 7.91088599 7.19788768 7.91088599 0 0 Z " fill="#FED71B" transform="translate(556,99)"/>
<path d="M0 0 C2.04883327 2.27051535 3.45835159 4.83454469 4.9375 7.5 C5.79429566 8.96061711 6.65497024 10.41896586 7.51953125 11.875 C8.14529053 12.93654297 8.14529053 12.93654297 8.78369141 14.01953125 C11.1876176 17.93375231 14.05230685 21.48619359 17 25 C16.67 25.66 16.34 26.32 16 27 C11.04588381 21.89739531 6.83831874 16.53185084 3 10.5625 C2.40360718 9.63993408 2.40360718 9.63993408 1.79516602 8.69873047 C-1 4.26416909 -1 4.26416909 -1 2 C-3.31 2 -5.62 2 -8 2 C-8.28359375 2.74378906 -8.5671875 3.48757812 -8.859375 4.25390625 C-15.33654312 19.84791032 -30.69362186 31.87307839 -45 40 C-45.66 40 -46.32 40 -47 40 C-47 40.66 -47 41.32 -47 42 C-50.20717178 43.29456387 -53.41593903 44.58512709 -56.625 45.875 C-57.52863281 46.23980469 -58.43226563 46.60460937 -59.36328125 46.98046875 C-71.86647727 52 -71.86647727 52 -77 52 C-77 51.34 -77 50.68 -77 50 C-76.47792969 49.83508057 -75.95585937 49.67016113 -75.41796875 49.50024414 C-57.90238254 43.88475027 -43.37710649 36.49714983 -29 25 C-28.40960938 24.56300781 -27.81921875 24.12601563 -27.2109375 23.67578125 C-20.18127379 18.31895196 -14.98100812 10.70658413 -11.203125 2.8125 C-8.34433334 -1.49425108 -4.64783073 -1.66205952 0 0 Z " fill="#FED918" transform="translate(243,123)"/>
<path d="M0 0 C0 3 0 3 -2.4375 5.5 C-5.0946509 7.6683354 -7.09836845 8.26892475 -10.4375 8.875 C-14.09218547 9.93406296 -14.89522777 10.82407809 -16.88671875 14.16796875 C-18.10742815 16.78647828 -19.2046011 19.45171921 -20.30859375 22.12109375 C-22.46118294 27.28303031 -25.59312641 31.59309884 -29 36 C-30.1446875 37.546875 -30.1446875 37.546875 -31.3125 39.125 C-31.869375 39.74375 -32.42625 40.3625 -33 41 C-33.66 41 -34.32 41 -35 41 C-35 41.66 -35 42.32 -35 43 C-48.80814446 54.64261759 -64.8769179 60.05450637 -82.8125 60.25 C-83.53034668 60.25950684 -84.24819336 60.26901367 -84.98779297 60.27880859 C-89.36547724 60.25125031 -92.93240627 59.60915796 -97 58 C-97 57.67 -97 57.34 -97 57 C-96.16359985 57.02356567 -96.16359985 57.02356567 -95.31030273 57.04760742 C-75.10047223 57.5396187 -56.62720134 55.69713557 -40 43 C-39.24976563 42.43796875 -38.49953125 41.8759375 -37.7265625 41.296875 C-28.46028924 33.77000457 -23.18628927 23.54840222 -19.203125 12.4609375 C-17.8083272 9.607942 -16.74867676 8.56097693 -14 7 C-11.14242171 6.12696335 -8.27904122 5.49255487 -5.36328125 4.84375 C-4.58339844 4.5653125 -3.80351562 4.286875 -3 4 C-2.67 3.01 -2.34 2.02 -2 1 C-1.34 0.67 -0.68 0.34 0 0 Z " fill="#FED91C" transform="translate(474,375)"/>
<path d="M0 0 C0.77093994 -0.00111786 1.54187988 -0.00223572 2.33618164 -0.00338745 C17.67666143 0.00748195 32.59710542 1.55369051 47.5 5.375 C47.5 6.035 47.5 6.695 47.5 7.375 C43.04069197 6.91978818 38.63126158 6.43478644 34.22265625 5.62109375 C-0.56575273 -0.58815817 -39.08584438 2.52170465 -71.98046875 15.5546875 C-74.5 16.375 -74.5 16.375 -76.5 15.375 C-72.17136128 12.46332086 -67.74952894 10.96136089 -62.8125 9.4375 C-61.9767041 9.17807617 -61.1409082 8.91865234 -60.27978516 8.65136719 C-54.68702746 6.95365966 -49.07243998 5.42895803 -43.375 4.125 C-42.73344971 3.97426025 -42.09189941 3.82352051 -41.4309082 3.66821289 C-27.79219852 0.71152299 -13.91096346 -0.02878987 0 0 Z " fill="#FED71D" transform="translate(216.5,26.625)"/>
<path d="M0 0 C3.09837867 1.29699572 4.18952347 2.12904695 5.6875 5.125 C5.875 7.875 5.875 7.875 5.6875 10.125 C5.0275 10.125 4.3675 10.125 3.6875 10.125 C2.6975 7.155 2.6975 7.155 1.6875 4.125 C-1.79587602 3.82886285 -3.71033434 3.7218891 -6.6640625 5.69921875 C-7.41429687 6.39660156 -8.16453125 7.09398437 -8.9375 7.8125 C-18.2341843 15.69932677 -30.61663766 19.7819257 -42.84375 19.4375 C-53.43963578 18.09624864 -65.7409028 13.5361008 -73.6875 6.25 C-76.19108223 3.82145912 -76.19108223 3.82145912 -79.6875 3.8125 C-80.986875 3.9671875 -80.986875 3.9671875 -82.3125 4.125 C-83.06207157 7.59647842 -83.06207157 7.59647842 -83.3125 11.125 C-84.3025 10.795 -85.2925 10.465 -86.3125 10.125 C-86.66805556 4.79166667 -86.66805556 4.79166667 -85.3125 2.25 C-81.90500645 0.33328488 -79.00609388 0.15879498 -75.3125 1.125 C-72.47417567 2.92724889 -69.88949046 4.94788835 -67.2421875 7.01953125 C-62.61638104 10.34394416 -57.67037054 12.27720254 -52.3125 14.125 C-51.58804688 14.39441406 -50.86359375 14.66382813 -50.1171875 14.94140625 C-39.81458473 18.05569112 -26.59854367 14.98231515 -17.3125 10.125 C-14.4742343 8.42204058 -11.91526163 6.63136857 -9.3828125 4.50390625 C-4.05735472 0.15310773 -4.05735472 0.15310773 0 0 Z " fill="#FED71B" transform="translate(590.3125,229.875)"/>
<path d="M0 0 C-13.24995951 8.1944603 -26.52003594 16.35253805 -39.875 24.375 C-40.93130615 25.01058838 -41.9876123 25.64617676 -43.07592773 26.30102539 C-44.05891846 26.89004639 -45.04190918 27.47906738 -46.0546875 28.0859375 C-46.91562012 28.6020459 -47.77655273 29.1181543 -48.66357422 29.64990234 C-53.09419398 32.21012463 -55.76355119 33.50963005 -61 33 C-63.55571387 32.08059972 -65.92484991 31.13556017 -68.375 30 C-69.33599609 29.57074219 -69.33599609 29.57074219 -70.31640625 29.1328125 C-71.88207163 28.4317683 -73.44169156 27.71724882 -75 27 C-75 26.34 -75 25.68 -75 25 C-76.65 24.67 -78.3 24.34 -80 24 C-80 23.34 -80 22.68 -80 22 C-80.680625 21.7525 -81.36125 21.505 -82.0625 21.25 C-85.56865083 19.75802092 -88.71620368 17.93164489 -92 16 C-89.37215676 14.98595809 -88.28391243 14.88774064 -85.62158203 15.94042969 C-84.32776611 16.67374512 -84.32776611 16.67374512 -83.0078125 17.421875 C-81.57888672 18.21851563 -81.57888672 18.21851563 -80.12109375 19.03125 C-79.13238281 19.5984375 -78.14367187 20.165625 -77.125 20.75 C-74.24038622 22.37235834 -71.35472121 23.99270916 -68.46582031 25.60742188 C-66.54156332 26.69415077 -64.63757887 27.81679924 -62.7421875 28.953125 C-58.94317768 30.40345923 -56.92492067 30.08059525 -53 29 C-49.77712917 27.44267442 -46.77667878 25.59380269 -43.75 23.6875 C-42.88391113 23.15495605 -42.01782227 22.62241211 -41.12548828 22.07373047 C-38.40784894 20.39667971 -35.70247686 18.70136084 -33 17 C-32.13536133 16.45714355 -31.27072266 15.91428711 -30.37988281 15.35498047 C-20.52530015 9.16380056 -20.52530015 9.16380056 -10.73046875 2.87890625 C-9.85003906 2.32074219 -8.96960938 1.76257813 -8.0625 1.1875 C-7.35222656 0.72730469 -6.64195312 0.26710938 -5.91015625 -0.20703125 C-3.51957552 -1.19944002 -2.42779877 -0.70946061 0 0 Z " fill="#FED514" transform="translate(449,493)"/>
<path d="M0 0 C3.43468829 1.1864095 5.87927348 3.61917262 8.640625 5.921875 C17.65858922 12.61215041 29.15454712 13.94820024 40.046875 12.70703125 C48.1855411 10.65467197 54.66912616 7.06371193 61.046875 1.70703125 C64.54252836 -0.62340433 65.9334479 -0.88060119 70.046875 -0.29296875 C72.484375 1.95703125 72.484375 1.95703125 74.046875 4.70703125 C73.796875 7.01953125 73.796875 7.01953125 73.046875 8.70703125 C72.056875 8.21203125 72.056875 8.21203125 71.046875 7.70703125 C70.421875 5.64453125 70.421875 5.64453125 70.046875 3.70703125 C65.5088752 3.10324884 65.5088752 3.10324884 61.4453125 4.8671875 C60.92195313 5.37121094 60.39859375 5.87523437 59.859375 6.39453125 C51.31307597 14.6098802 39.63330657 16.09202926 28.3515625 15.91796875 C17.88706227 15.55087281 9.16593662 11.02979439 1.234375 4.33203125 C-1.37052871 2.39695992 -2.78035379 2.34442883 -5.953125 2.70703125 C-6.283125 4.68703125 -6.613125 6.66703125 -6.953125 8.70703125 C-7.613125 7.71703125 -8.273125 6.72703125 -8.953125 5.70703125 C-8.203125 3.08203125 -8.203125 3.08203125 -6.953125 0.70703125 C-4.49492795 -0.52206728 -2.68418549 -0.41593783 0 0 Z " fill="#FED618" transform="translate(198.953125,252.29296875)"/>
<path d="M0 0 C0 0.33 0 0.66 0 1 C-1.19753906 1.21914062 -2.39507812 1.43828125 -3.62890625 1.6640625 C-24.14163013 5.58698326 -43.12642075 13.16928139 -59 27 C-59.97066406 27.76957031 -60.94132812 28.53914063 -61.94140625 29.33203125 C-65.20965044 32.05548193 -67.78589074 35.13830356 -70.375 38.5 C-70.84615234 39.10585937 -71.31730469 39.71171875 -71.80273438 40.3359375 C-77.71183931 48.06507882 -82.73003621 56.25178149 -87 65 C-87.80558553 62.69161383 -88.16996638 61.45884937 -87.30664062 59.12817383 C-86.92701172 58.49419678 -86.54738281 57.86021973 -86.15625 57.20703125 C-85.73819092 56.49901367 -85.32013184 55.79099609 -84.8894043 55.06152344 C-84.43090088 54.3193457 -83.97239746 53.57716797 -83.5 52.8125 C-83.03440674 52.04583008 -82.56881348 51.27916016 -82.08911133 50.48925781 C-66.49432932 25.13460447 -42.42593658 7.54698426 -13.3359375 0.57421875 C-8.84154055 -0.19940696 -4.54041557 -0.38459991 0 0 Z " fill="#FED71B" transform="translate(191,89)"/>
<path d="M0 0 C1.16153847 -0.0049926 1.16153847 -0.0049926 2.34654236 -0.01008606 C3.97768568 -0.01511751 5.60883916 -0.01749556 7.23999023 -0.01733398 C9.68426368 -0.0195041 12.12807269 -0.03765517 14.57226562 -0.05664062 C41.7166855 -0.15871703 41.7166855 -0.15871703 47.65234375 5.16796875 C45.98551844 5.02395995 44.3188919 4.87765031 42.65234375 4.73046875 C41.26015625 4.60865234 41.26015625 4.60865234 39.83984375 4.484375 C37.53472717 4.25555828 35.23453316 3.97518604 32.93920898 3.66308594 C25.89927354 2.78004027 18.79990441 2.87850412 11.71484375 2.85546875 C10.91876709 2.85251801 10.12269043 2.84956726 9.30249023 2.8465271 C-8.24405731 2.83178321 -24.88233957 5.01409231 -41.81640625 9.6862793 C-44.34765625 10.16796875 -44.34765625 10.16796875 -47.34765625 9.16796875 C-41.22561409 6.19812702 -35.06197749 4.86598292 -28.41015625 3.54296875 C-27.36408203 3.32640625 -26.31800781 3.10984375 -25.24023438 2.88671875 C-16.78827443 1.16551509 -8.62086537 0.01330613 0 0 Z " fill="#FED81C" transform="translate(554.34765625,26.83203125)"/>
<path d="M0 0 C2.49361571 1.20381448 4.68143083 2.45428722 7 4 C9.00898182 4.54679949 11.01947423 4.94129895 13.0625 5.33984375 C15.5424015 6.18481019 16.40183238 6.90078523 18 9 C19.1041312 11.46856276 20.12891623 13.92679501 21.125 16.4375 C28.42579799 33.8502775 39.99593147 43.43612124 57 51 C59.9860512 52.13888476 62.9307586 53.10039476 66 54 C66 54.66 66 55.32 66 56 C63.03 55.67 60.06 55.34 57 55 C57 54.34 57 53.68 57 53 C55.02 53 53.04 53 51 53 C51 52.34 51 51.68 51 51 C49.92685547 50.61714844 49.92685547 50.61714844 48.83203125 50.2265625 C38.52865933 45.76413659 28.58057445 36.7660053 23 27 C23 26.34 23 25.68 23 25 C22.34 25 21.68 25 21 25 C20.69449219 23.87980469 20.38898438 22.75960938 20.07421875 21.60546875 C17.91868349 13.30135882 17.91868349 13.30135882 12.29296875 7.4453125 C9.39665549 6.77531313 9.39665549 6.77531313 6.50390625 6.43359375 C4 6 4 6 1.3125 3.375 C0 1 0 1 0 0 Z " fill="#FED618" transform="translate(309,377)"/>
<path d="M0 0 C5.63959685 2.81979843 9.91270855 6.43429979 14.52734375 10.71484375 C16.6403866 12.66765586 18.79603295 14.52722964 21 16.375 C34.37370858 28.08035861 44.26867737 42.68097287 53 58 C53.49113281 58.85464844 53.98226562 59.70929688 54.48828125 60.58984375 C57.10802362 65.4242137 57.10802362 65.4242137 56.5859375 68.20703125 C56.39257812 68.79871094 56.19921875 69.39039062 56 70 C54.82823482 67.87767021 53.66245215 65.75242209 52.5 63.625 C52.16613281 63.02171875 51.83226562 62.4184375 51.48828125 61.796875 C49 57.2265625 49 57.2265625 49 55 C48.34 55 47.68 55 47 55 C46.59652344 53.98164062 46.19304688 52.96328125 45.77734375 51.9140625 C44.13377755 48.09346671 42.00080109 44.73432933 39.5625 41.375 C39.13146973 40.77671387 38.70043945 40.17842773 38.25634766 39.56201172 C33.72820716 33.41633227 28.63682791 27.85632821 23.32958984 22.38085938 C22.19671454 21.20429993 21.08962223 20.00300377 19.98828125 18.796875 C13.81466382 12.20811193 6.33750875 7.19740203 -1 2 C-0.67 1.34 -0.34 0.68 0 0 Z " fill="#FED714" transform="translate(670,57)"/>
<path d="M0 0 C0.99 0.33 1.98 0.66 3 1 C2.18917969 1.71542969 1.37835938 2.43085937 0.54296875 3.16796875 C-14.24051605 16.39446951 -26.01817693 31.24699308 -35.4375 48.75 C-35.86297119 49.53004395 -36.28844238 50.31008789 -36.72680664 51.11376953 C-39.17520702 55.7965891 -40.65390819 60.01991804 -41.42993164 65.25878906 C-41.6180542 65.83338867 -41.80617676 66.40798828 -42 67 C-43.485 67.495 -43.485 67.495 -45 68 C-45.33 68.99 -45.66 69.98 -46 71 C-46.44953531 65.49319251 -44.9867455 61.71045147 -42.75 56.8125 C-42.39719971 56.03293945 -42.04439941 55.25337891 -41.6809082 54.45019531 C-33.99124648 38.03203839 -23.10043411 20.06533093 -8.859375 8.53125 C-5.68601032 5.91789086 -2.86360057 2.94413934 0 0 Z " fill="#FED616" transform="translate(92,70)"/>
<path d="M0 0 C2.5 1.1875 2.5 1.1875 4.5 3.1875 C4.125 5.3125 4.125 5.3125 3.5 7.1875 C3.2525 6.548125 3.005 5.90875 2.75 5.25 C1.6915374 3.09127237 1.6915374 3.09127237 -0.234375 2.31640625 C-3.73351506 2.11731725 -5.31097629 3.92753337 -8 6.0625 C-15.25776741 11.78497046 -21.34630386 11.96196078 -30.5 11.1875 C-35.41250112 9.83232728 -39.28003258 7.4270578 -43.3125 4.375 C-46.17060492 1.87227765 -46.17060492 1.87227765 -48.69921875 2.55078125 C-49.29347656 2.76089844 -49.88773437 2.97101563 -50.5 3.1875 C-51.08963678 5.42974658 -51.08963678 5.42974658 -50.5 8.1875 C-46.93386478 12.32214953 -42.4674627 15.00666272 -37.5 17.1875 C-39.21484375 17.859375 -39.21484375 17.859375 -41.5 18.1875 C-43.75390625 17.078125 -43.75390625 17.078125 -46.0625 15.4375 C-46.82691406 14.90640625 -47.59132813 14.3753125 -48.37890625 13.828125 C-50.27214708 12.36373983 -51.96184295 11.01978739 -53.5 9.1875 C-53.89365568 6.03825452 -54.02854531 4.06840884 -52.375 1.3125 C-49.42365426 -0.45830745 -47.92437009 -0.38322835 -44.5 0.1875 C-42.13071455 1.5539133 -39.94635294 3.05596681 -37.74609375 4.6796875 C-31.133703 9.11861416 -24.23525341 8.91909259 -16.5 8.1875 C-11.82163804 6.64132927 -8.25351809 3.29755785 -4.5 0.1875 C-2.5 -0.8125 -2.5 -0.8125 0 0 Z " fill="#FED61C" transform="translate(413.5,391.8125)"/>
<path d="M0 0 C0.5561499 0.2266333 1.1122998 0.4532666 1.68530273 0.68676758 C-11.17577758 8.9403688 -24.10813427 17.0647919 -37.14624023 25.03613281 C-44.18425211 29.34647634 -51.12897217 33.76322775 -57.97094727 38.37817383 C-58.74438477 38.81000977 -59.51782227 39.2418457 -60.31469727 39.68676758 C-60.97469727 39.35676758 -61.63469727 39.02676758 -62.31469727 38.68676758 C-58.23577857 34.15826866 -53.75813789 31.34302618 -48.50219727 28.31176758 C-46.71451752 27.26045633 -44.92811609 26.20696917 -43.14282227 25.15161133 C-42.19987305 24.5945752 -41.25692383 24.03753906 -40.28540039 23.46362305 C-35.0625544 20.33970185 -29.908076 17.10712981 -24.75219727 13.87426758 C-23.77855225 13.26470215 -22.80490723 12.65513672 -21.80175781 12.02709961 C-20.85598877 11.43396973 -19.91021973 10.84083984 -18.93579102 10.22973633 C-18.01137207 9.65271973 -17.08695312 9.07570313 -16.13452148 8.48120117 C-14.17001374 7.23105988 -12.22487714 5.95017396 -10.2956543 4.64624023 C-8.83748291 3.67050049 -8.83748291 3.67050049 -7.34985352 2.67504883 C-6.47852783 2.07861572 -5.60720215 1.48218262 -4.70947266 0.86767578 C-2.31469727 -0.31323242 -2.31469727 -0.31323242 0 0 Z " fill="#FED815" transform="translate(512.314697265625,451.313232421875)"/>
<path d="M0 0 C0.33 0 0.66 0 1 0 C2.65386742 6.96755115 2.28737004 14.19005847 2.3125 21.3125 C2.31611542 22.09101318 2.31973083 22.86952637 2.32345581 23.67163086 C2.35055233 38.20433778 1.6336674 53.09899779 -3 67 C-3.66 67 -4.32 67 -5 67 C-5.16225931 63.15141205 -5.05734569 59.80163394 -4.125 56.05859375 C-0.61650774 41.87446187 -0.67211766 28.05026012 -0.88476562 13.53686523 C-0.89626144 12.71743942 -0.90775726 11.89801361 -0.91960144 11.05375671 C-0.94413493 9.49254464 -0.97445458 7.93141037 -1.01118469 6.37043762 C-1.04427918 4.5805938 -1.02740795 2.78993993 -1 1 C-0.67 0.67 -0.34 0.34 0 0 Z " fill="#FED714" transform="translate(725,166)"/>
<path d="M0 0 C0 4.04160019 -1.36631291 4.66535733 -4.1875 7.5 C-11.48053286 15.25342518 -17.15597892 24.13468346 -23 33 C-25.54495229 32.62385818 -26.74613825 32.26815078 -28.53979492 30.37353516 C-29.01521729 29.68565918 -29.49063965 28.9977832 -29.98046875 28.2890625 C-30.50447266 27.53882812 -31.02847656 26.78859375 -31.56835938 26.015625 C-32.10267578 25.22671875 -32.63699219 24.4378125 -33.1875 23.625 C-33.73341797 22.84382813 -34.27933594 22.06265625 -34.84179688 21.2578125 C-38.84575145 15.46274566 -38.84575145 15.46274566 -40 12 C-36.83981957 13.34192562 -35.30380937 14.57084528 -33.4921875 17.4765625 C-33.06292969 18.146875 -32.63367188 18.8171875 -32.19140625 19.5078125 C-31.75699219 20.20648438 -31.32257813 20.90515625 -30.875 21.625 C-29.30349005 24.13575059 -27.69763541 26.56889145 -26 29 C-25.34 29 -24.68 29 -24 29 C-22.50330155 27.32378532 -22.50330155 27.32378532 -20.98828125 25.125 C-20.09786133 23.89330078 -20.09786133 23.89330078 -19.18945312 22.63671875 C-18.57005859 21.76660156 -17.95066406 20.89648438 -17.3125 20 C-5.7547089 3.8364726 -5.7547089 3.8364726 0 0 Z " fill="#FDD617" transform="translate(416,95)"/>
<path d="M0 0 C0 0.66 0 1.32 0 2 C-7.11066312 3.95674268 -13.79854259 4.15902865 -21.10913086 3.75 C-24.43862785 3.64024893 -26.51988554 3.66961615 -29.3046875 5.5859375 C-31.36240493 8.51605126 -32.80805934 11.47286214 -34.25 14.75 C-34.77078125 15.92046875 -35.2915625 17.0909375 -35.828125 18.296875 C-36.21484375 19.18890625 -36.6015625 20.0809375 -37 21 C-37.703125 19.4453125 -37.703125 19.4453125 -38 17 C-37.01523808 14.49175346 -35.99578145 12.24442747 -34.75 9.875 C-34.43675781 9.24207031 -34.12351563 8.60914063 -33.80078125 7.95703125 C-32.13809994 4.70755865 -31.09267766 3.06178511 -28 1 C-18.77699633 -0.33374951 -9.29848283 -0.1271829 0 0 Z " fill="#FED815" transform="translate(165,175)"/>
<path d="M0 0 C0.5779834 0.2158374 1.1559668 0.4316748 1.75146484 0.65405273 C0.69572266 1.32887695 0.69572266 1.32887695 -0.38134766 2.01733398 C-12.60563722 9.98067666 -23.72342305 18.89984134 -34.31103516 28.92749023 C-37.18573165 31.63753093 -40.1916044 34.15210048 -43.24853516 36.65405273 C-40.07944946 26.66062908 -28.36422026 18.73294235 -20.24853516 12.65405273 C-19.54647949 12.1186084 -18.84442383 11.58316406 -18.12109375 11.03149414 C-15.71643613 9.20276072 -13.29713782 7.3950855 -10.87353516 5.59155273 C-10.087771 4.9942334 -9.30200684 4.39691406 -8.49243164 3.78149414 C-7.74421143 3.23283691 -6.99599121 2.68417969 -6.22509766 2.11889648 C-5.55559082 1.61994873 -4.88608398 1.12100098 -4.19628906 0.60693359 C-2.24853516 -0.34594727 -2.24853516 -0.34594727 0 0 Z " fill="#FED516" transform="translate(461.24853515625,57.345947265625)"/>
<path d="M0 0 C0.66 0 1.32 0 2 0 C2.08636719 0.556875 2.17273438 1.11375 2.26171875 1.6875 C3.34744524 7.58428975 5.24232392 12.27881724 9 17 C12.39431113 18.69715556 16.30355134 18.23595949 20.0546875 18.328125 C24.00342236 19.22889741 24.84108691 20.62043562 27 24 C28.31873513 26.36407396 29.56046312 28.69997847 30.75 31.125 C31.06582031 31.74503906 31.38164062 32.36507812 31.70703125 33.00390625 C33.1284163 35.8651359 34 37.76226613 34 41 C30.85549172 37.30711169 28.55302172 33.54635834 26.3125 29.25 C24.50218158 25.38882803 24.50218158 25.38882803 22 22 C20.08506033 21.86783392 18.16774908 21.76935514 16.25 21.6875 C12.38954607 21.38948396 10.28832251 21.16146061 6.875 19.25 C4.92006565 16.90407878 3.88949252 14.91106642 3 12 C2.34 12 1.68 12 1 12 C0.67 8.04 0.34 4.08 0 0 Z " fill="#FED717" transform="translate(113,225)"/>
<path d="M0 0 C3.83735269 1.18600173 4.66827324 2.50695959 6.74609375 5.8828125 C8.77379614 9.12247494 9.83495809 10.79622206 13.05859375 12.9453125 C13.05859375 13.6053125 13.05859375 14.2653125 13.05859375 14.9453125 C7.5016833 12.88719752 4.43100465 7.56019057 1.05859375 2.9453125 C-2.36469007 3.21965232 -3.65101822 3.62862518 -6.01171875 6.203125 C-6.68976562 7.14929688 -7.3678125 8.09546875 -8.06640625 9.0703125 C-12.62438521 14.92948412 -17.46771968 18.4224226 -23.94140625 21.9453125 C-24.57691406 22.30496094 -25.21242188 22.66460937 -25.8671875 23.03515625 C-28.4573767 24.42987351 -29.94421311 24.9453125 -32.94140625 24.9453125 C-32.94140625 24.2853125 -32.94140625 23.6253125 -32.94140625 22.9453125 C-32.00039063 22.49800781 -31.059375 22.05070312 -30.08984375 21.58984375 C-28.8318175 20.97960713 -27.57401696 20.36890503 -26.31640625 19.7578125 C-25.39021484 19.31985352 -25.39021484 19.31985352 -24.4453125 18.87304688 C-19.72821457 16.56415157 -14.37127335 13.80504669 -11.94140625 8.9453125 C-11.28140625 8.9453125 -10.62140625 8.9453125 -9.94140625 8.9453125 C-9.71453125 8.3884375 -9.48765625 7.8315625 -9.25390625 7.2578125 C-6.96213872 3.21993638 -4.9232125 -0.09153383 0 0 Z " fill="#FED719" transform="translate(541.94140625,83.0546875)"/>
<path d="M0 0 C5.01603966 0.94348824 8.09971703 3.99197391 11.9375 7.1875 C12.68733154 7.80810303 13.43716309 8.42870605 14.2097168 9.06811523 C21.42563579 15.15867897 27.85129136 21.84646231 34 29 C35.19689453 30.34384766 35.19689453 30.34384766 36.41796875 31.71484375 C36.94003906 32.46894531 37.46210938 33.22304687 38 34 C37.67 34.99 37.34 35.98 37 37 C36.28714844 36.13117188 35.57429688 35.26234375 34.83984375 34.3671875 C28.17929761 26.26786922 28.17929761 26.26786922 20.4765625 19.1875 C18.14243388 17.31031719 16.11651462 15.11651462 14 13 C11.04762531 10.38279828 8.01960251 7.85463758 4.99609375 5.3203125 C4.35800781 4.78148438 3.71992188 4.24265625 3.0625 3.6875 C2.47597656 3.19636719 1.88945312 2.70523438 1.28515625 2.19921875 C0.86105469 1.80347656 0.43695313 1.40773438 0 1 C0 0.67 0 0.34 0 0 Z " fill="#FED510" transform="translate(336,68)"/>
<path d="M0 0 C2 1 2 1 3.04296875 3.88671875 C3.42066406 5.14097656 3.79835938 6.39523438 4.1875 7.6875 C7.82179446 19.1209273 12.94089888 29.2222229 20.3984375 38.6953125 C21.92168941 40.88730915 22.57956599 42.39330913 23 45 C18.43071545 41.79905734 15.89961319 38.24507083 13.0625 33.5625 C12.629375 32.85673828 12.19625 32.15097656 11.75 31.42382812 C5.9533252 21.81173005 0 11.49095901 0 0 Z " fill="#FED816" transform="translate(103,242)"/>
<path d="M0 0 C-2.43073772 1.62049181 -4.36003865 2.63773084 -7.02734375 3.69921875 C-19.80752789 8.87361561 -31.27808821 14.38841855 -41.94140625 23.30078125 C-44 25 -44 25 -47 27 C-46.31801305 21.94658851 -42.91311308 20.09228995 -39.06640625 17.1484375 C-28.57858115 9.80027979 -13.0970553 -0.35397447 0 0 Z " fill="#FED618" transform="translate(508,108)"/>
<path d="M0 0 C6.1537312 2.63731337 8.9840525 7.24650015 12 13 C12.37640625 13.70125 12.7528125 14.4025 13.140625 15.125 C16 20.60211268 16 20.60211268 16 24 C16.66 24 17.32 24 18 24 C18.33 27.63 18.66 31.26 19 35 C18.34 35 17.68 35 17 35 C16.64808594 33.82824219 16.29617188 32.65648437 15.93359375 31.44921875 C12.78266942 21.29575976 9.5868616 11.46841223 1.7890625 3.8359375 C0 2 0 2 0 0 Z " fill="#FED410" transform="translate(645,138)"/>
<path d="M0 0 C3.42144306 1.89255527 6.44577682 4.17772274 8.86328125 7.24609375 C9.61328125 9.99609375 9.61328125 9.99609375 9.86328125 12.24609375 C9.20328125 12.24609375 8.54328125 12.24609375 7.86328125 12.24609375 C7.32703125 11.33859375 6.79078125 10.43109375 6.23828125 9.49609375 C3.66020519 5.46665635 0.34895121 3.71130346 -4.13671875 2.24609375 C-9.01974902 1.2335274 -12.27117818 2.04155914 -16.51171875 4.62109375 C-18.62295593 6.05942665 -20.32383474 7.43320974 -22.13671875 9.24609375 C-21.84212866 5.71101272 -21.38790462 4.48405931 -18.76171875 1.99609375 C-13.38028124 -1.59153126 -6.1260463 -2.1614752 0 0 Z " fill="#FED919" transform="translate(200.13671875,199.75390625)"/>
<path d="M0 0 C2.63016161 2.1727422 4.47336894 3.94673788 6 7 C6.039992 8.99960012 6.04346799 11.00047242 6 13 C5.731875 12.443125 5.46375 11.88625 5.1875 11.3125 C4.795625 10.549375 4.40375 9.78625 4 9 C3.5875 8.113125 3.175 7.22625 2.75 6.3125 C1.13960622 3.76582622 1.13960622 3.76582622 -1.875 2.875 C-5.11906351 2.73992671 -5.11906351 2.73992671 -7.8125 4.8125 C-10.76240709 9.11093604 -11.19540695 12.8429558 -11 18 C-10.1025173 20.83378132 -10.1025173 20.83378132 -9 23 C-9.33 23.99 -9.66 24.98 -10 26 C-12.78436157 22.05180476 -13.40870413 19.30845578 -13.375 14.5 C-13.38273438 13.3965625 -13.39046875 12.293125 -13.3984375 11.15625 C-12.96096672 7.69079521 -11.99383092 5.83043837 -10 3 C-9.5875 2.401875 -9.175 1.80375 -8.75 1.1875 C-5.77759896 -0.82948642 -3.47356049 -0.47911179 0 0 Z " fill="#FDD918" transform="translate(593,171)"/>
<path d="M0 0 C2.8125 2.4375 2.8125 2.4375 5 5 C5.33 5.33 5.66 5.66 6 6 C6.07244053 8.01964199 6.08377188 10.04167124 6.0625 12.0625 C6.05347656 13.16722656 6.04445313 14.27195313 6.03515625 15.41015625 C6.02355469 16.26480469 6.01195312 17.11945313 6 18 C5.67 18 5.34 18 5 18 C4.96261719 17.39671875 4.92523437 16.7934375 4.88671875 16.171875 C4.50675198 11.5526711 4.24820627 8.53065899 1 5 C1 4.34 1 3.68 1 3 C-2.81523264 2.5563683 -4.53312219 2.68167422 -7.75 4.875 C-10.74914603 9.0404806 -11.34703609 12.98094902 -12 18 C-12.66 18 -13.32 18 -14 18 C-14.33551114 12.51998472 -13.64469957 8.83341646 -11 4 C-7.53025965 0.34270611 -5.03482441 -0.94402958 0 0 Z " fill="#FED818" transform="translate(511,171)"/>
<path d="M0 0 C2.97379403 2.76870479 4.93235124 5.52259072 7 9 C7.66 9.33 8.32 9.66 9 10 C9.40729228 12.32156597 9.74438677 14.6568787 10 17 C10.66 17 11.32 17 12 17 C13.00399524 19.62353518 14.00334445 22.24867795 15 24.875 C15.28617188 25.62136719 15.57234375 26.36773437 15.8671875 27.13671875 C18 32.7734375 18 32.7734375 18 35 C17.34 35 16.68 35 16 35 C15.59910156 34.030625 15.19820312 33.06125 14.78515625 32.0625 C11.28925293 23.76977082 7.45027763 15.8820666 2.84594727 8.14257812 C0 3.29809671 0 3.29809671 0 0 Z " fill="#FED611" transform="translate(701,106)"/>
<path d="M0 0 C2.42884877 2.17318048 3.82168098 3.71409382 4.27734375 7 C4.33090815 10.23767026 4.02488212 12.92535365 3 16 C2.34 16 1.68 16 1 16 C1.02320313 15.24074219 1.04640625 14.48148437 1.0703125 13.69921875 C1.08835937 12.70535156 1.10640625 11.71148437 1.125 10.6875 C1.14820313 9.70136719 1.17140625 8.71523438 1.1953125 7.69921875 C1.20682639 4.77593473 1.20682639 4.77593473 -1 2 C-3.77400059 1.0509998 -5.37657608 0.80406677 -8.1875 1.6875 C-10.49242109 3.35658079 -11.13756998 4.26897161 -12 7 C-12.15467124 9.6912795 -12.09002071 12.29937883 -12 15 C-12.66 15 -13.32 15 -14 15 C-15.20336061 10.06622151 -14.87353387 6.72844261 -13 2 C-8.69652047 -2.16465761 -5.38705273 -2.41867673 0 0 Z " fill="#FED51B" transform="translate(369,354)"/>
<path d="M0 0 C0.99 0.33 1.98 0.66 3 1 C-4.89105858 7.81500514 -4.89105858 7.81500514 -10.5625 8.3125 C-14.10462541 8.64688925 -14.10462541 8.64688925 -15.875 11.25 C-16.94206812 13.85838873 -17.60217254 16.21520775 -18 19 C-18.66 19 -19.32 19 -20 19 C-20.33 19.66 -20.66 20.32 -21 21 C-20.46602652 14.69911292 -19.61841897 10.61841897 -15 6 C-13.046875 5.5078125 -13.046875 5.5078125 -10.75 5.125 C-7.53223083 4.48868873 -5.27586287 3.75069371 -2.625 1.8125 C-1.325625 0.9153125 -1.325625 0.9153125 0 0 Z " fill="#FED616" transform="translate(677,217)"/>
<path d="M0 0 C0.66 0 1.32 0 2 0 C2 2.6875 2 2.6875 1 6 C-1.84459122 8.4194655 -5.16527165 11 -9 11 C-13.69727398 20.10045538 -13.69727398 20.10045538 -16 30 C-16.33 30 -16.66 30 -17 30 C-17.81846857 22.87629212 -16.76454907 18.1946166 -12.7890625 12.203125 C-9.52308324 8.18126408 -5.9577176 5.65257253 -1 4 C-0.26676204 1.98491642 -0.26676204 1.98491642 0 0 Z " fill="#FED718" transform="translate(314,343)"/>
<path d="M0 0 C0.99 0.33 1.98 0.66 3 1 C4.20777727 3.43050229 5.25098421 5.79777563 6.25 8.3125 C8.93276643 14.8182086 11.97869854 20.63092275 15.8125 26.546875 C17.1869205 29.3861384 16.89961501 30.10685036 16 33 C14.077342 29.52411289 12.16299804 26.04371155 10.25 22.5625 C9.71117188 21.58861328 9.17234375 20.61472656 8.6171875 19.61132812 C0 3.90072409 0 3.90072409 0 0 Z " fill="#FED713" transform="translate(62,254)"/>
<path d="M0 0 C4.24506798 1.52975423 5.83147132 4.31130878 8.25 8 C11.75743997 13.2718287 15.49007786 18.21917656 19.56640625 23.07421875 C21 25 21 25 21 27 C17.54665863 25.57459616 15.95099504 23.95420302 13.8359375 20.90234375 C13.27132812 20.10119141 12.70671875 19.30003906 12.125 18.47460938 C11.5475 17.63736328 10.97 16.80011719 10.375 15.9375 C9.21988489 14.27734007 8.06120456 12.6196533 6.8984375 10.96484375 C6.38974121 10.2287085 5.88104492 9.49257324 5.35693359 8.73413086 C4.09858152 6.87061866 4.09858152 6.87061866 2 6 C2 5.01 2 4.02 2 3 C1.34 3 0.68 3 0 3 C0 2.01 0 1.02 0 0 Z " fill="#FED511" transform="translate(83,293)"/>
<path d="M0 0 C9.8085198 1.5569079 20.0806244 4.5403122 29 9 C29 9.66 29 10.32 29 11 C21.6118068 10.37388193 21.6118068 10.37388193 18.75 8.625 C15.21217289 6.5344658 11.61071982 5.47298772 7.6875 4.3125 C6.94693359 4.08755859 6.20636719 3.86261719 5.44335938 3.63085938 C3.63072049 3.08122049 1.81560111 2.5397733 0 2 C0 1.34 0 0.68 0 0 Z " fill="#FED613" transform="translate(265,33)"/>
<path d="M0 0 C3.60398233 3.29059256 4.91651913 4.96483718 5.3125 9.875 C5.209375 10.90625 5.10625 11.9375 5 13 C4.34 13 3.68 13 3 13 C2.7525 11.741875 2.505 10.48375 2.25 9.1875 C1.54274778 6.39805767 1.12122624 5.1379471 -0.8125 2.9375 C-3.71221584 1.69476464 -5.06772742 1.87220285 -8 3 C-11.06572143 5.95623138 -11.52887484 8.85409858 -12 13 C-12.33 13 -12.66 13 -13 13 C-13.62589928 4.86330935 -13.62589928 4.86330935 -11.1875 1.5 C-7.2251775 -1.21702114 -4.53661809 -1.36098543 0 0 Z " fill="#FED91C" transform="translate(420,353)"/>
<path d="M0 0 C0.66 0 1.32 0 2 0 C-1.48445386 9.2864747 -7.87775435 17.17688866 -15 24 C-15.66 24 -16.32 24 -17 24 C-15.36909664 20.17329938 -12.89343063 17.38190171 -10.1875 14.25 C-7.17922901 10.73459581 -4.37054015 7.23649394 -2 3.25 C-1.34 2.1775 -0.68 1.105 0 0 Z " fill="#FED61A" transform="translate(321,257)"/>
<path d="M0 0 C0.99 0 1.98 0 3 0 C1.61099253 3.94024569 -0.23875492 6.92114024 -2.75 10.25 C-5.89918552 14.46602916 -8.8223962 18.74054441 -11.578125 23.22265625 C-13.19235376 25.2404422 -14.63228675 26.02357125 -17 27 C-17.99 26.34 -18.98 25.68 -20 25 C-19.25621094 24.77441406 -18.51242187 24.54882812 -17.74609375 24.31640625 C-14.3785396 22.70208797 -13.16852295 20.99963153 -11.0625 17.9375 C-10.381875 16.95652344 -9.70125 15.97554687 -9 14.96484375 C-8.34 13.98644531 -7.68 13.00804687 -7 12 C-6.1028125 10.70255859 -6.1028125 10.70255859 -5.1875 9.37890625 C-2.12687786 4.93027555 -2.12687786 4.93027555 0 0 Z " fill="#FED50F" transform="translate(410,120)"/>
<path d="M0 0 C0.99 0.33 1.98 0.66 3 1 C-0.39455387 3.27275044 -3.79086599 5.54285976 -7.1875 7.8125 C-8.14720703 8.45509766 -9.10691406 9.09769531 -10.09570312 9.75976562 C-11.02705078 10.38173828 -11.95839844 11.00371094 -12.91796875 11.64453125 C-13.77156982 12.21534424 -14.6251709 12.78615723 -15.50463867 13.37426758 C-17.96866613 14.97958593 -20.46872625 16.50343643 -23 18 C-23 17.01 -23 16.02 -23 15 C-21.10400391 13.39013672 -21.10400391 13.39013672 -18.4765625 11.6796875 C-17.538125 11.06222656 -16.5996875 10.44476563 -15.6328125 9.80859375 C-14.64023438 9.17050781 -13.64765625 8.53242187 -12.625 7.875 C-11.64015625 7.22917969 -10.6553125 6.58335938 -9.640625 5.91796875 C-2.48625837 1.24312919 -2.48625837 1.24312919 0 0 Z " fill="#FED616" transform="translate(119,51)"/>
<path d="M0 0 C-2.56261507 3.84392261 -4.15960254 3.86009127 -8.5625 5 C-14.12361911 6.48907412 -19.55874892 8.12370652 -25 10 C-21.76310233 6.22088089 -18.17579133 4.50581713 -13.625 2.75 C-12.97789062 2.481875 -12.33078125 2.21375 -11.6640625 1.9375 C-7.63160687 0.34402963 -4.32406116 -0.2945181 0 0 Z " fill="#FED516" transform="translate(506,37)"/>
<path d="M0 0 C0.66 0 1.32 0 2 0 C2.144375 1.19625 2.28875 2.3925 2.4375 3.625 C3.40503542 7.63638771 4.89996885 8.97949636 8.375 11.125 C9.17421875 11.59808594 9.9734375 12.07117188 10.796875 12.55859375 C13.98156289 14.64219274 15.33694212 16.5982907 17 20 C16.67 20.99 16.34 21.98 16 23 C15.6596875 22.48050781 15.319375 21.96101563 14.96875 21.42578125 C12.25325556 17.51864697 9.94278915 14.7085779 5.75 12.375 C2.72113514 10.65825789 2.10713432 10.21873257 0.5 6.9375 C0 4 0 4 0 0 Z " fill="#FED615" transform="translate(468,339)"/>
<path d="M0 0 C2 1 2 1 2.77783203 2.77832031 C3.01872559 3.53725586 3.25961914 4.29619141 3.5078125 5.078125 C3.77207031 5.90957031 4.03632812 6.74101562 4.30859375 7.59765625 C4.57800781 8.47292969 4.84742188 9.34820312 5.125 10.25 C5.40214844 11.10980469 5.67929687 11.96960938 5.96484375 12.85546875 C7.28436651 17.0740415 8.15640449 20.54394753 8 25 C5.4345406 22.4345406 5.45953913 20.52313332 5 17 C4.34 17 3.68 17 3 17 C2.690625 15.88625 2.38125 14.7725 2.0625 13.625 C1.17673517 10.2054845 1.17673517 10.2054845 0 8 C-0.13415472 5.3276379 -0.04318541 2.67749512 0 0 Z " fill="#FED715" transform="translate(54,228)"/>
<path d="M0 0 C0.99 0.33 1.98 0.66 3 1 C5.82818249 9.03799235 5.79439769 17.70091067 4 26 C3.34 26 2.68 26 2 26 C2.03480469 24.28103516 2.03480469 24.28103516 2.0703125 22.52734375 C2.08908479 20.9974024 2.10728341 19.46745394 2.125 17.9375 C2.14175781 17.18533203 2.15851562 16.43316406 2.17578125 15.65820312 C2.21879988 10.68955133 1.52853939 6.72402923 0 2 C0 1.34 0 0.68 0 0 Z " fill="#FED712" transform="translate(693,183)"/>
<path d="M0 0 C0 0.66 0 1.32 0 2 C-0.78503906 2.13535156 -1.57007812 2.27070313 -2.37890625 2.41015625 C-9.88322264 3.94785053 -14.26358913 5.91271138 -19 12 C-19.33 11.01 -19.66 10.02 -20 9 C-13.17560027 1.98603361 -9.83554224 -0.18914504 0 0 Z " fill="#FED917" transform="translate(127,197)"/>
<path d="M0 0 C0.66 0 1.32 0 2 0 C2.33 0.99 2.66 1.98 3 3 C4.94788693 3.49522549 6.89850726 3.98295937 8.86328125 4.40625 C13.44415998 5.67918157 16.41024388 8.11536582 19 12 C18.67 12.99 18.34 13.98 18 15 C17.484375 14.236875 16.96875 13.47375 16.4375 12.6875 C12.31536564 8.14258263 6.72731834 6.81597899 1 5 C0.67 3.35 0.34 1.7 0 0 Z " fill="#FEDA1A" transform="translate(674,167)"/>
<path d="M0 0 C0.66 0.33 1.32 0.66 2 1 C0.98679687 2.485 0.98679687 2.485 -0.046875 4 C-0.94816841 5.33316317 -1.84919584 6.6665062 -2.75 8 C-3.41515625 8.97259766 -3.41515625 8.97259766 -4.09375 9.96484375 C-7.13966285 14.48892019 -9.64880126 19.07786432 -12 24 C-13.12109375 20.31005859 -13.12109375 20.31005859 -12.03125 17.51953125 C-8.48341191 11.24746033 -4.61893861 5.53452703 0 0 Z " fill="#FED618" transform="translate(457,137)"/>
<path d="M0 0 C3.91984606 0.57193483 6.5530831 1.74175624 9.875 3.875 C13.83041912 6.33825502 17.66573615 8.30398371 22 10 C22 10.66 22 11.32 22 12 C14.0360113 10.18607633 7.5314377 6.91932241 1 2 C0.67 1.34 0.34 0.68 0 0 Z " fill="#FED718" transform="translate(262,152)"/>
<path d="M0 0 C5.65119704 0.4902458 9.59704519 2.74151945 14.375 5.5625 C15.11105469 5.98724609 15.84710937 6.41199219 16.60546875 6.84960938 C18.40839699 7.89156141 20.20487053 8.94466854 22 10 C22 10.66 22 11.32 22 12 C18.16610796 10.56229049 14.58436131 8.80169455 10.96484375 6.90234375 C8.99079124 5.99577093 7.11886583 5.45775052 5 5 C5 4.34 5 3.68 5 3 C4.360625 2.87625 3.72125 2.7525 3.0625 2.625 C2.381875 2.41875 1.70125 2.2125 1 2 C0.67 1.34 0.34 0.68 0 0 Z " fill="#FDD313" transform="translate(646,45)"/>
<path d="M0 0 C7.09168629 -0.68629222 10.9758265 0.59633842 17.03125 4.296875 C19.21208242 6.18346813 19.65719742 7.18412167 20 10 C19.39414062 9.59007812 18.78828125 9.18015625 18.1640625 8.7578125 C12.19146693 4.91697412 7.04853149 2.86981878 0 2 C0 1.34 0 0.68 0 0 Z " fill="#FED71D" transform="translate(268,199)"/>
<path d="M0 0 C1.32 0.33 2.64 0.66 4 1 C3.67 1.33 3.34 1.66 3 2 C2.86762997 3.331892 2.79680374 4.67004648 2.75390625 6.0078125 C2.72103516 6.83023437 2.68816406 7.65265625 2.65429688 8.5 C2.59392225 10.22645744 2.53654516 11.95302278 2.48242188 13.6796875 C2.2724667 18.78199449 1.62241172 23.15247025 0 28 C-0.66 28 -1.32 28 -2 28 C-1.855625 27.15179688 -1.71125 26.30359375 -1.5625 25.4296875 C-0.19889531 16.81246343 0.23881153 8.72988797 0 0 Z " fill="#FED917" transform="translate(408,296)"/>
<path d="M0 0 C2 2 2 2 3 5 C3.66 5.33 4.32 5.66 5 6 C5.4125 6.78375 5.825 7.5675 6.25 8.375 C8.39426591 11.59139887 10.48802894 12.51716777 14 14 C14 14.66 14 15.32 14 16 C9.06553512 15.56460604 6.52008638 13.36703914 3 10 C0.40705967 6.54274622 -0.36966019 4.3127022 0 0 Z " fill="#FDD40C" transform="translate(106,240)"/>
<path d="M0 0 C0.99 0 1.98 0 3 0 C6.67247451 3.94450966 6.30932092 8.18309194 6.171875 13.26171875 C5.96467966 16.5627172 5.57876996 19.74441896 5 23 C4.67 23 4.34 23 4 23 C3.96261719 21.73542969 3.92523438 20.47085937 3.88671875 19.16796875 C3.82106167 17.5077827 3.75461424 15.84762778 3.6875 14.1875 C3.66494141 13.35412109 3.64238281 12.52074219 3.61914062 11.66210938 C3.58369141 10.85966797 3.54824219 10.05722656 3.51171875 9.23046875 C3.48553467 8.49207764 3.45935059 7.75368652 3.43237305 6.99291992 C2.89562007 4.51888574 1.82308773 3.68968367 0 2 C0 1.34 0 0.68 0 0 Z " fill="#FED61C" transform="translate(393,296)"/>
<path d="M0 0 C2.31 0.33 4.62 0.66 7 1 C7 1.33 7 1.66 7 2 C5.35 2.33 3.7 2.66 2 3 C1.86722656 4.12019531 1.73445313 5.24039062 1.59765625 6.39453125 C1.41943431 7.86720729 1.24103989 9.33986247 1.0625 10.8125 C0.97548828 11.55048828 0.88847656 12.28847656 0.79882812 13.04882812 C0.41783454 16.16733121 -0.00369374 19.01108122 -1 22 C-1.66 22 -2.32 22 -3 22 C-2.80083984 21.00033203 -2.80083984 21.00033203 -2.59765625 19.98046875 C-1.32379789 13.33222984 -0.49610861 6.74968813 0 0 Z " fill="#FED817" transform="translate(385,294)"/>
<path d="M0 0 C0.45890625 0.39832031 0.9178125 0.79664063 1.390625 1.20703125 C2.00421875 1.73683594 2.6178125 2.26664062 3.25 2.8125 C3.88808594 3.36550781 4.52617187 3.91851562 5.18359375 4.48828125 C7.02266929 6.07953791 7.02266929 6.07953791 9.3125 7.5 C11.70897381 9.63019894 12.1894254 11.96034525 13 15 C9.8510285 13.63088196 7.9521513 12.1247864 5.75 9.5 C5.22921875 8.8915625 4.7084375 8.283125 4.171875 7.65625 C3 6 3 6 3 4 C1.68 3.34 0.36 2.68 -1 2 C-0.67 1.34 -0.34 0.68 0 0 Z " fill="#FED40E" transform="translate(438,310)"/>
<path d="M0 0 C0.66 0 1.32 0 2 0 C1.67 2.97 1.34 5.94 1 9 C0.34 9 -0.32 9 -1 9 C-1.103125 9.9075 -1.20625 10.815 -1.3125 11.75 C-2.00414949 15.01961575 -2.82134921 16.53717737 -5 19 C-4.39297368 12.3227105 -2.22368606 6.29872004 0 0 Z " fill="#FED616" transform="translate(718,234)"/>
<path d="M0 0 C2.9460801 5.7807538 4.26261902 10.4345244 4 17 C3.34 17 2.68 17 2 17 C-0.01167675 11.21642935 -0.22084624 6.09781001 0 0 Z " fill="#FDD411" transform="translate(91,238)"/>
<path d="M0 0 C4.40908655 1.30833429 8.00349255 3.02391394 11.875 5.5 C12.84179688 6.1084375 13.80859375 6.716875 14.8046875 7.34375 C15.52914063 7.8903125 16.25359375 8.436875 17 9 C17 9.66 17 10.32 17 11 C12.99624358 9.5143761 9.38578153 7.63136615 5.6875 5.5 C4.61886719 4.8915625 3.55023438 4.283125 2.44921875 3.65625 C1.23685547 2.83640625 1.23685547 2.83640625 0 2 C0 1.34 0 0.68 0 0 Z " fill="#FED511" transform="translate(311,51)"/>
<path d="M0 0 C0.33 0.99 0.66 1.98 1 3 C-2.3 5.97 -5.6 8.94 -9 12 C-9.99 11.67 -10.98 11.34 -12 11 C-11.46890625 10.54109375 -10.9378125 10.0821875 -10.390625 9.609375 C-6.81675301 6.50506283 -3.28145941 3.41818688 0 0 Z " fill="#FED00A" transform="translate(630,377)"/>
<path d="M0 0 C0.66 0 1.32 0 2 0 C0.83805848 6.46712188 -1.1248748 12.09622349 -4 18 C-4.33 18 -4.66 18 -5 18 C-4.42934122 11.58008874 -2.32655091 5.98410537 0 0 Z " fill="#FED817" transform="translate(329,237)"/>
<path d="M0 0 C0 0.99 0 1.98 0 3 C-2.30078125 5.296875 -2.30078125 5.296875 -5.3125 7.75 C-6.29863281 8.56984375 -7.28476562 9.3896875 -8.30078125 10.234375 C-9.63689453 11.10835938 -9.63689453 11.10835938 -11 12 C-11.99 11.67 -12.98 11.34 -14 11 C-13.195625 10.38125 -12.39125 9.7625 -11.5625 9.125 C-8.96125481 7.25835959 -8.96125481 7.25835959 -8 5 C-7.01 5 -6.02 5 -5 5 C-5 4.34 -5 3.68 -5 3 C-2.5 1.375 -2.5 1.375 0 0 Z " fill="#FED20B" transform="translate(592,409)"/>
<path d="M0 0 C0 0.66 0 1.32 0 2 C-1.36125 2.86625 -1.36125 2.86625 -2.75 3.75 C-6.22202235 6.15370778 -7.81487153 8.4390499 -10 12 C-10.33 12 -10.66 12 -11 12 C-11.23828125 9.73828125 -11.23828125 9.73828125 -11 7 C-9.35546875 4.98046875 -9.35546875 4.98046875 -7.1875 3.1875 C-6.47980469 2.58292969 -5.77210938 1.97835937 -5.04296875 1.35546875 C-3 0 -3 0 0 0 Z " fill="#FDD71B" transform="translate(267,200)"/>
<path d="M0 0 C0.33 0 0.66 0 1 0 C1.226875 1.258125 1.45375 2.51625 1.6875 3.8125 C2.4982907 7.16810823 2.68510425 7.77507446 5.625 9.875 C6.40875 10.24625 7.1925 10.6175 8 11 C8 11.66 8 12.32 8 13 C4.62537285 12.45276317 2.91765 11.9451 0 10 C-0.29296875 7.6171875 -0.29296875 7.6171875 -0.1875 4.875 C-0.16042969 3.96492187 -0.13335938 3.05484375 -0.10546875 2.1171875 C-0.07066406 1.41851562 -0.03585937 0.71984375 0 0 Z " fill="#FED40E" transform="translate(664,174)"/>
<path d="M0 0 C-2.28874173 1.33858524 -4.58069656 2.67101014 -6.875 4 C-7.52597656 4.3815625 -8.17695313 4.763125 -8.84765625 5.15625 C-13.7734375 8 -13.7734375 8 -16 8 C-16 7.34 -16 6.68 -16 6 C-13.9021477 4.79994469 -11.7979751 3.61497017 -9.6875 2.4375 C-8.79514648 1.92413086 -8.79514648 1.92413086 -7.88476562 1.40039062 C-3.33984375 -1.11328125 -3.33984375 -1.11328125 0 0 Z " fill="#FED518" transform="translate(480,48)"/>
<path d="M0 0 C3.95680188 4.61626886 6 7.84625334 6 14 C5.34 14 4.68 14 4 14 C3.32471777 12.42032193 2.66010306 10.83608097 2 9.25 C1.62875 8.36828125 1.2575 7.4865625 0.875 6.578125 C0 4 0 4 0 0 Z " fill="#FED915" transform="translate(452,327)"/>
<path d="M0 0 C2.18742014 3.2811302 2.54442806 5.33084356 3.125 9.1875 C3.37636719 10.81751953 3.37636719 10.81751953 3.6328125 12.48046875 C3.75398438 13.31191406 3.87515625 14.14335937 4 15 C3.01 14.67 2.02 14.34 1 14 C-0.38226016 11.23547967 -0.09525387 8.9538637 -0.0625 5.875 C-0.05347656 4.77929688 -0.04445313 3.68359375 -0.03515625 2.5546875 C-0.02355469 1.71164062 -0.01195312 0.86859375 0 0 Z " fill="#FED519" transform="translate(458,342)"/>
<path d="M0 0 C0.66 0 1.32 0 2 0 C3.46619907 6.02232181 4.32528788 10.90367577 3 17 C2.67 17 2.34 17 2 17 C1.34 11.39 0.68 5.78 0 0 Z " fill="#FEDB1A" transform="translate(735,155)"/>
<path d="M0 0 C-2.12040742 1.03033882 -4.24647908 2.04902854 -6.375 3.0625 C-8.15003906 3.91521484 -8.15003906 3.91521484 -9.9609375 4.78515625 C-10.96382812 5.18605469 -11.96671875 5.58695313 -13 6 C-13.66 5.67 -14.32 5.34 -15 5 C-10.58314576 1.28984244 -5.76882092 -1.87233661 0 0 Z " fill="#FED61B" transform="translate(139,44)"/>
<path d="M0 0 C2.24940295 -0.08119503 4.49964871 -0.13927819 6.75 -0.1875 C8.00296875 -0.22230469 9.2559375 -0.25710937 10.546875 -0.29296875 C14.14109357 0.01197061 15.44725126 0.54394629 18 3 C11.97099313 2.48758893 5.97995357 1.930215 0 1 C0 0.67 0 0.34 0 0 Z " fill="#FED726" transform="translate(584,29)"/>
<path d="M0 0 C5.34844008 0.53484401 9.35796103 2.46690767 14 5 C14 5.66 14 6.32 14 7 C9.0276578 5.50829734 4.58154261 3.39542583 0 1 C0 0.67 0 0.34 0 0 Z " fill="#FED612" transform="translate(295,44)"/>
<path d="M0 0 C1.65161581 0.75836443 3.29617138 1.53212076 4.9375 2.3125 C5.85402344 2.74175781 6.77054687 3.17101562 7.71484375 3.61328125 C10 5 10 5 11 8 C6.69235185 6.43358249 2.93828536 4.31663844 -1 2 C-0.67 1.34 -0.34 0.68 0 0 Z " fill="#FDD217" transform="translate(344,499)"/>
<path d="M0 0 C3.48872415 1.16290805 4.09976864 2.13967609 6.1875 5.0625 C6.71730469 5.79597656 7.24710937 6.52945312 7.79296875 7.28515625 C8.19128906 7.85105469 8.58960938 8.41695313 9 9 C4.18579475 8.16677217 2.81953925 5.8377062 0 2 C0 1.34 0 0.68 0 0 Z " fill="#FDD714" transform="translate(299,381)"/>
<path d="M0 0 C1.34567923 2.69135846 0.77224621 4.13876894 0.1875 7.0625 C0.01605469 7.96097656 -0.15539063 8.85945312 -0.33203125 9.78515625 C-0.55246094 10.51605469 -0.77289063 11.24695313 -1 12 C-1.99 12.495 -1.99 12.495 -3 13 C-2.88557539 11.39504433 -2.75805306 9.79101881 -2.625 8.1875 C-2.55539063 7.29417969 -2.48578125 6.40085938 -2.4140625 5.48046875 C-2 3 -2 3 0 0 Z " fill="#FDD411" transform="translate(45,142)"/>
<path d="M0 0 C0.33 0 0.66 0 1 0 C1 1.65 1 3.3 1 5 C0.34 5 -0.32 5 -1 5 C-1.66 6.65 -2.32 8.3 -3 10 C-3.66 9.34 -4.32 8.68 -5 8 C-4.01 6.02 -3.02 4.04 -2 2 C-1.34 2 -0.68 2 0 2 C0 1.34 0 0.68 0 0 Z " fill="#FED715" transform="translate(684,206)"/>
<path d="M0 0 C1.17539996 0.92652701 2.34010577 1.86663387 3.5 2.8125 C4.1496875 3.33457031 4.799375 3.85664063 5.46875 4.39453125 C7 6 7 6 7 9 C5.82460004 8.07347299 4.65989423 7.13336613 3.5 6.1875 C2.52546875 5.40439453 2.52546875 5.40439453 1.53125 4.60546875 C0 3 0 3 0 0 Z " fill="#FED20C" transform="translate(107,342)"/>
<path d="M0 0 C0 0.99 0 1.98 0 3 C-2.3125 5.25 -2.3125 5.25 -5 7 C-5.99 6.67 -6.98 6.34 -8 6 C-6.625 4.5 -6.625 4.5 -5 3 C-4.34 3 -3.68 3 -3 3 C-3 2.34 -3 1.68 -3 1 C-2.01 0.67 -1.02 0.34 0 0 Z " fill="#FED10D" transform="translate(605,399)"/>
<path d="M0 0 C2.4375 1.1875 2.4375 1.1875 5 3 C5.8125 5.6875 5.8125 5.6875 6 8 C5.34 8 4.68 8 4 8 C3.566875 7.0409375 3.566875 7.0409375 3.125 6.0625 C2.17176549 3.84793921 2.17176549 3.84793921 0 3 C0 2.01 0 1.02 0 0 Z " fill="#FEDC17" transform="translate(307,165)"/>
<path d="M0 0 C2.49361571 1.20381448 4.68143083 2.45428722 7 4 C7 4.66 7 5.32 7 6 C5.1875 5.8125 5.1875 5.8125 3 5 C1.25 2.4375 1.25 2.4375 0 0 Z " fill="#FED00B" transform="translate(673,76)"/>
<path d="M0 0 C2.97 0.495 2.97 0.495 6 1 C6.33 1.99 6.66 2.98 7 4 C4.69 3.34 2.38 2.68 0 2 C0 1.34 0 0.68 0 0 Z " fill="#FED10C" transform="translate(328,63)"/>
</svg>
